<svg xmlns="http://www.w3.org/2000/svg" width="33" height="30" viewBox="0 0 33 30"><defs><linearGradient id="a" x1="50%" x2="50%" y1="2.607%" y2="100%"><stop offset="0%" stop-color="#EB3349"/><stop offset="100%" stop-color="#F45D43"/></linearGradient></defs><g fill="none" fill-rule="evenodd"><path fill="#000" fill-rule="nonzero" d="M3.359 10.553c-.163.889-.313 1.752-.449 2.58-.635 3.884-.899 6.647-.648 8.12a1.5 1.5 0 1 0 2.958-.505c-.173-1.01.077-3.619.65-7.13.133-.81.28-1.654.44-2.525a184.326 184.326 0 0 1 1.155-5.77c.393-1.779-2.13-2.588-2.845-.911-.106.248-.472.75-1.2 1.295a7.087 7.087 0 0 1-1.916.996 1.5 1.5 0 0 0 .992 2.831c.402-.14.783-.298 1.143-.472-.095.495-.189.993-.28 1.49zM14.146 2.5c-7.567 0-9.184 16.02-2.345 16.942 6.162.83 9.14-7.141 7.078-14.232a1.5 1.5 0 1 0-2.88.838c1.556 5.35-.504 10.864-3.798 10.42-1.061-.142-1.946-2.554-1.642-5.57.326-3.231 1.78-5.398 3.587-5.398a1.5 1.5 0 1 0 0-3zm13-2c-7.567 0-9.184 16.02-2.345 16.942 6.162.83 9.14-7.141 7.078-14.232a1.5 1.5 0 1 0-2.88.838c1.556 5.35-.504 10.864-3.798 10.42-1.061-.142-1.946-2.554-1.642-5.57.326-3.231 1.78-5.398 3.587-5.398a1.5 1.5 0 1 0 0-3zm-16.54 23.872c4.035-1.78 8.339-2.154 12.124-1.721.482.055.815.108.974.14a1.5 1.5 0 0 0 .592-2.941c-.24-.048-.656-.115-1.226-.18-4.268-.488-9.08-.07-13.675 1.958a1.5 1.5 0 0 0 1.21 2.744zM7.51 29.41c6.301-2.282 12.186-2.782 16.948-2.278.56.06.94.117 1.12.152a1.5 1.5 0 1 0 .57-2.946c-.262-.05-.726-.12-1.375-.19-5.184-.548-11.516-.01-18.285 2.442a1.5 1.5 0 1 0 1.022 2.82z"/><path fill="url(#a)" d="M3.359 10.553c-.163.889-.313 1.752-.449 2.58-.635 3.884-.899 6.647-.648 8.12a1.5 1.5 0 1 0 2.958-.505c-.173-1.01.077-3.619.65-7.13.133-.81.28-1.654.44-2.525a184.326 184.326 0 0 1 1.155-5.77c.393-1.779-2.13-2.588-2.845-.911-.106.248-.472.75-1.2 1.295a7.087 7.087 0 0 1-1.916.996 1.5 1.5 0 0 0 .992 2.831c.402-.14.783-.298 1.143-.472-.095.495-.189.993-.28 1.49zM14.146 2.5c-7.567 0-9.184 16.02-2.345 16.942 6.162.83 9.14-7.141 7.078-14.232a1.5 1.5 0 1 0-2.88.838c1.556 5.35-.504 10.864-3.798 10.42-1.061-.142-1.946-2.554-1.642-5.57.326-3.231 1.78-5.398 3.587-5.398a1.5 1.5 0 1 0 0-3zm13-2c-7.567 0-9.184 16.02-2.345 16.942 6.162.83 9.14-7.141 7.078-14.232a1.5 1.5 0 1 0-2.88.838c1.556 5.35-.504 10.864-3.798 10.42-1.061-.142-1.946-2.554-1.642-5.57.326-3.231 1.78-5.398 3.587-5.398a1.5 1.5 0 1 0 0-3zm-16.54 23.872c4.035-1.78 8.339-2.154 12.124-1.721.482.055.815.108.974.14a1.5 1.5 0 0 0 .592-2.941c-.24-.048-.656-.115-1.226-.18-4.268-.488-9.08-.07-13.675 1.958a1.5 1.5 0 0 0 1.21 2.744zM7.51 29.41c6.301-2.282 12.186-2.782 16.948-2.278.56.06.94.117 1.12.152a1.5 1.5 0 1 0 .57-2.946c-.262-.05-.726-.12-1.375-.19-5.184-.548-11.516-.01-18.285 2.442a1.5 1.5 0 1 0 1.022 2.82z"/></g></svg>