<svg xmlns="http://www.w3.org/2000/svg" width="110" height="106" viewBox="0 0 110 106"><path fill="#3C4858" fill-rule="evenodd" d="M79.744 7.81c37.773 14.392 34.258 39.166 21.175 70.087-13.084 30.921-39.41 40.594-71.183 7.065-31.774-33.53-38.64-38.024-15.706-61.916C36.964-.846 41.97-6.581 79.744 7.81zM50.78 59.27c-3.698 0-7 2.09-8.452 5.487-.396.784 0 1.829.792 2.09.793.392 1.85 0 2.113-.784a5.948 5.948 0 0 1 5.415-3.527c3.302 0 5.943 2.613 5.943 5.879 0 .914.792 1.567 1.585 1.567.924 0 1.584-.783 1.584-1.567.265-5.095-3.962-9.145-8.98-9.145zM34.273 77.951c2.377 0 3.962-.522 5.018-1.045.925.914 2.113 1.568 3.434 1.568h15.584c.924 0 1.584-.784 1.584-1.568 0-.914-.792-1.568-1.584-1.568H42.725c-.528 0-1.189-.522-1.717-1.306 0 0 0-.13-.132-.13-.396-.784-.66-1.83-.66-3.005 0-5.748 5.679-20.118 13.602-26.78.66 1.568 2.114 3.527 5.151 5.487 3.038 1.959 5.81 2.482 7.66 2.482h.132c-.396 7.446-.264 12.41 3.037 21.946.264.653.793 1.045 1.585 1.045h3.302c.924 0 1.585-.784 1.585-1.567 0-.784-.793-1.568-1.585-1.568h-2.113c-2.906-9.014-2.906-13.455-2.377-21.424l.396-2.482c1.188 0 2.245-.13 3.17-.13 1.584 0 2.905-.131 4.49-.131 2.905 0 4.754-1.176 5.414-3.527.264-1.176.528-1.83.528-2.09.265-.523.66-1.438.66-2.875 0-3.135-2.508-3.657-3.565-3.919-.396-.13-.792-.13-1.056-.26-1.321-.262-1.981-.393-2.906-1.307l-.792-.784c-1.85-2.09-4.755-5.095-9.641-5.095-7 0-9.905 4.703-10.697 7.577-1.321 1.437-2.113 3.92-2.51 5.095-10.169 6.923-16.508 23.775-16.508 30.568 0 1.176.264 2.352.529 3.397-.66.26-1.585.522-3.302.522-1.849 0-6.075-.784-6.075-8.36 0-3.136.66-5.879 1.98-7.97.53-.783.265-1.828-.527-2.22-.793-.522-1.85-.261-2.245.523-1.585 2.743-2.378 6.009-2.378 9.667-.264 8.23 4.623 11.234 9.113 11.234zm24.432-40.888c.264-.262.396-.523.528-.915 0-.261.925-5.356 7.528-5.356 3.434 0 5.547 2.221 7.263 4.05.265.261.529.653.793.914 1.717 1.699 3.17 1.96 4.754 2.352.264 0 .66.13 1.057.261.792.13.924.261.924.261v.392c0 .915-.264 1.437-.264 1.437-.132.13-.132.261-.264.523 0 0-.132.261-.66 2.351-.132.653-.397 1.045-2.246 1.045-1.584 0-3.037 0-4.622.13-1.32 0-2.773.131-4.49.131-.792 0-1.453.654-1.585 1.307l-.396 2.743c-1.189.13-3.434-.13-6.207-1.96-4.094-2.612-4.226-4.964-4.226-5.225.396-1.567 1.32-3.788 2.113-4.441zm6.867 41.41h3.566c.924 0 1.585-.783 1.585-1.567 0-.914-.793-1.568-1.585-1.568h-2.377c-.793-2.612-2.773-9.536-3.434-17.505-.132-.914-.924-1.567-1.717-1.437-.924.131-1.584.915-1.452 1.699.792 10.45 3.83 18.942 3.962 19.334.132.653.66 1.045 1.452 1.045zm.396-35.532c3.698 0 5.019-2.612 5.019-4.833 0-1.96-.792-3.658-1.453-4.703-.528-.784-1.452-1.045-2.245-.523-.792.523-1.056 1.437-.528 2.221.396.653.924 1.698.924 2.874 0 1.176-.528 1.568-1.717 1.568-2.245 0-2.64-2.09-2.773-2.482-.132-.915-.924-1.568-1.849-1.437-.924.13-1.585.914-1.453 1.829.397 2.09 1.981 5.486 6.075 5.486z"/></svg>