<svg xmlns="http://www.w3.org/2000/svg" xmlns:xlink="http://www.w3.org/1999/xlink" width="37" height="33" viewBox="0 0 37 33"><defs><linearGradient id="a" x1="19.955%" x2="139.371%" y1="50%" y2="49.609%"><stop offset="0%" stop-color="#FC6986"/><stop offset="100%" stop-color="#EB3349"/></linearGradient><linearGradient id="b" x1="55.685%" x2="29.891%" y1="100%" y2="34.635%"><stop offset="0%" stop-color="#F97692"/><stop offset="100%" stop-color="#EF4159"/></linearGradient><linearGradient id="c" x1="94.391%" x2="20.498%" y1="63.549%" y2="38.908%"><stop offset="0%" stop-color="#FFC274"/><stop offset="100%" stop-color="#F48700"/></linearGradient><path id="d" d="M1.838 20.489c-1.025.394-1.592-.145-1.265-1.2 0 0 5.38-17.458 5.689-17.804 3.203-3.572 14.204 9.563 11.778 12.719-.079.102-16.202 6.285-16.202 6.285z"/><path id="f" d="M1.838 20.489c-1.025.394-1.592-.145-1.265-1.2 0 0 5.38-17.458 5.689-17.804 3.203-3.572 14.204 9.563 11.778 12.719-.079.102-16.202 6.285-16.202 6.285z"/><path id="h" d="M1.838 20.489c-1.025.394-1.592-.145-1.265-1.2 0 0 5.38-17.458 5.689-17.804 3.203-3.572 14.204 9.563 11.778 12.719-.079.102-16.202 6.285-16.202 6.285z"/><path id="j" d="M1.838 20.489c-1.025.394-1.592-.145-1.265-1.2 0 0 5.38-17.458 5.689-17.804 3.203-3.572 14.204 9.563 11.778 12.719-.079.102-16.202 6.285-16.202 6.285z"/><radialGradient id="l" cx="38.814%" cy="54.426%" r="82.967%" fx="38.814%" fy="54.426%" gradientTransform="matrix(1 0 0 .90533 0 .052)"><stop offset="0%" stop-color="#FEE9CE"/><stop offset="96.716%" stop-color="#FFB150"/></radialGradient><path id="m" d="M1.838 20.489c-1.025.394-1.592-.145-1.265-1.2 0 0 5.38-17.458 5.689-17.804 3.203-3.572 14.204 9.563 11.778 12.719-.079.102-16.202 6.285-16.202 6.285z"/></defs><g fill="none" fill-rule="evenodd"><path fill="#EB3349" fill-rule="nonzero" d="M4.174 19l1.992.174-.174 1.992L4 20.992zM28 31.147L29.64 30l1.147 1.639-1.639 1.147zm0-29L29.64 1l1.147 1.639-1.639 1.147z"/><path fill="#F48700" fill-rule="nonzero" d="M28.286 25l1.532 1.286-1.286 1.532L27 26.532zm4.061-6l1.97.347-.348 1.97-1.97-.348z"/><path fill="#4AB223" fill-rule="nonzero" d="M26 21.347L27.97 21l.346 1.97-1.97.346z"/><path fill="#5EBEFF" fill-rule="nonzero" d="M22 29l1.732-1 1 1.732-1.732 1zM17 2l1.732-1 1 1.732-1.732 1z"/><path fill="#8E45A5" fill-rule="nonzero" d="M32 26.347L33.97 26l.346 1.97-1.97.346zM19.732 6l1 1.732-1.732 1L18 7zM9.684 6l1.88.684-.684 1.88L9 7.88z"/><path stroke="url(#a)" stroke-linecap="round" stroke-linejoin="round" stroke-width="2" d="M16 19.319c3.42-3.786 7.288-10.496.261-13.319" transform="translate(-3 1)"/><path stroke="#5EBEFF" stroke-linecap="round" stroke-linejoin="round" stroke-width="2" d="M14.834 23.502s8.55-5.165 15.264-5.165"/><path stroke="url(#b)" stroke-linecap="round" stroke-linejoin="round" stroke-width="2" d="M27.45 11.156s-1.013-3.17 0-3.384c1.013-.214 2.539 2.264 3.824 2.577 1.285.313 2.23-3.116.722-4.846s2.59 2.986 5.07 1.174c2.478-1.812.759-4.988.759-4.988" transform="translate(-3 1)"/><path stroke="#5EBEFF" stroke-linecap="round" stroke-linejoin="round" stroke-width="2" d="M4.747 15.44s2.957-1.525 2.392-2.392-3.396-.194-4.526-.881c-1.13-.688.626-3.78 2.916-3.937 2.29-.157-3.943.279-4.415-2.755C.643 2.44 4.104 1.41 4.104 1.41"/><path fill="url(#c)" d="M1.838 20.489c-1.025.394-1.592-.145-1.265-1.2 0 0 5.38-17.458 5.689-17.804 3.203-3.572 14.204 9.563 11.778 12.719-.079.102-16.202 6.285-16.202 6.285z" transform="translate(5 11)"/><g transform="translate(5 11)"><mask id="e" fill="#fff"><use xlink:href="#d"/></mask><g mask="url(#e)"><path fill="#000" fill-rule="nonzero" d="M9.834 12.502s8.55-5.165 15.264-5.165"/><path stroke="#5EBEFF" stroke-linecap="round" stroke-linejoin="round" stroke-width="2" d="M9.834 12.502s8.55-5.165 15.264-5.165"/></g></g><g transform="translate(5 11)"><mask id="g" fill="#fff"><use xlink:href="#f"/></mask><g stroke-linecap="round" stroke-linejoin="round" mask="url(#g)"><path stroke="url(#a)" stroke-width="2" d="M0 13.319C3.42 9.533 7.288 2.823.261 0" transform="translate(8 -4)"/></g></g><g transform="translate(5 11)"><mask id="i" fill="#fff"><use xlink:href="#h"/></mask><path fill="#4AB223" fill-rule="nonzero" mask="url(#i)" transform="rotate(-10 9.158 5.158)" d="M8.158 4.158h2v2h-2z"/></g><g transform="translate(5 11)"><mask id="k" fill="#fff"><use xlink:href="#j"/></mask><g mask="url(#k)"><path fill="#000" fill-rule="nonzero" d="M1.857 20.55C.82 20.91.233 20.34.543 19.282c0 0 5.08-17.501 5.842-18.019-1.76 3.027 6.073 14.674 11.632 12.959-2.72 1.714-16.16 6.326-16.16 6.326z"/><path fill="url(#l)" d="M1.857 19.55C.82 19.91.233 19.34.543 18.282c0 0 5.08-17.501 5.842-18.019-1.76 3.027 6.073 14.674 11.632 12.959-2.72 1.714-16.16 6.326-16.16 6.326z" transform="translate(0 1)"/></g></g><g transform="translate(5 11)"><mask id="n" fill="#fff"><use xlink:href="#m"/></mask><path fill="#8E45A5" fill-rule="nonzero" mask="url(#n)" transform="rotate(30 5.366 12.366)" d="M4.366 11.366h2v2h-2z"/></g></g></svg>