<svg xmlns="http://www.w3.org/2000/svg" width="32" height="32" viewBox="0 0 32 32"><defs><linearGradient id="a" x1="50%" x2="50%" y1="0%" y2="100%"><stop offset="0%" stop-color="#FFF" stop-opacity=".95"/><stop offset="100%" stop-color="#E1E1E1"/></linearGradient></defs><g fill="none" fill-rule="evenodd"><g fill-rule="nonzero"><circle cx="16" cy="16" r="16" fill="#3EB2EF" opacity=".2"/><circle cx="16" cy="16" r="12" fill="#00A9FF"/></g><path fill="#000" fill-rule="nonzero" d="M15.14 12.236c.058-1.021.777-1.908 1.628-1.982L19.671 10l2.563.243c.84.08 1.563.972 1.616 1.983l.113 2.185a41.011 41.011 0 0 1-.01 3.685l-.094 1.671c-.058 1.02-.78 1.908-1.622 1.986L19.55 22l-2.788-.25c-.838-.076-1.56-.963-1.612-1.984l-.115-2.247a41.042 41.042 0 0 1 .012-3.695l.091-1.588z"/><path fill="url(#a)" d="M.14 2.236C.197 1.215.916.328 1.767.254L4.671 0l2.563.243c.84.08 1.563.972 1.616 1.983l.113 2.185a41.011 41.011 0 0 1-.01 3.685L8.86 9.767c-.058 1.02-.78 1.908-1.622 1.986L4.55 12l-2.788-.25C.924 11.674.202 10.787.15 9.766L.036 7.519a41.042 41.042 0 0 1 .012-3.695l.091-1.588z" transform="translate(15 10)"/><path fill="#000" fill-rule="nonzero" d="M8.155 10.98c.065-1.36.864-2.542 1.81-2.641L13.19 8l2.848.324c.933.106 1.737 1.296 1.795 2.644l.126 2.914a65.607 65.607 0 0 1-.01 4.912l-.106 2.23c-.064 1.358-.866 2.543-1.802 2.646l-2.985.33-3.097-.334c-.931-.1-1.733-1.283-1.791-2.645l-.128-2.995a65.656 65.656 0 0 1 .013-4.927l.102-2.118z"/><path fill="url(#a)" d="M.155 2.98C.22 1.62 1.019.439 1.965.34L5.19 0l2.848.324C8.97.43 9.775 1.62 9.833 2.968l.126 2.914a65.607 65.607 0 0 1-.01 4.912l-.106 2.23c-.064 1.358-.866 2.543-1.802 2.646L5.056 16l-3.097-.334c-.931-.1-1.733-1.283-1.791-2.645L.04 10.026a65.656 65.656 0 0 1 .013-4.927L.155 2.98z" transform="translate(8 8)"/></g></svg>