<svg xmlns="http://www.w3.org/2000/svg" width="33" height="30" viewBox="0 0 33 30">
  <defs>
    <linearGradient id="100-a" x1="50%" x2="50%" y1="2.607%" y2="100%">
      <stop offset="0%" stop-color="#EB3349"/>
      <stop offset="100%" stop-color="#F45D43"/>
    </linearGradient>
  </defs>
  <g fill="none" fill-rule="evenodd">
    <path fill="#000" fill-rule="nonzero" d="M3.35872436,10.5529146 C3.19598279,11.4417192 3.04562759,12.3047189 2.91018741,13.1330134 C2.2751085,17.0168854 2.01115858,19.7795838 2.26227571,21.2521545 C2.40153681,22.0687927 3.17644625,22.6179152 3.99308438,22.4786541 C4.80972252,22.3393931 5.35884511,21.5644836 5.21958401,20.7478455 C5.0473502,19.7378528 5.2965786,17.1292409 5.87086748,13.6171347 C6.00308096,12.8085734 6.15020244,11.9641344 6.30966524,11.0932366 C6.56247829,9.71251119 6.83357342,8.33312322 7.10465178,7.02127247 C7.19949712,6.56227998 7.28752336,6.1447121 7.36644783,5.77679431 C7.41361422,5.55692135 7.44712884,5.40307083 7.46471073,5.32345399 C7.85767844,3.54396123 5.33508511,2.73529112 4.62022501,4.41159454 C4.51434797,4.65986976 4.14795685,5.16197846 3.41978133,5.70693284 C2.89679046,6.09833045 2.26317283,6.43695197 1.50362883,6.70330171 C0.721874566,6.97743994 0.310370459,7.83340993 0.584508684,8.61516419 C0.85864691,9.39691846 1.7146169,9.80842257 2.49637117,9.53428434 C2.89810566,9.39340788 3.27869994,9.23555834 3.63850962,9.06215449 C3.54350361,9.55668611 3.44997204,10.05457 3.35872436,10.5529146 Z M14.1458601,2.5 C6.57930599,2.5 4.96197211,18.5206875 11.8006894,19.4417396 C17.9634133,20.2717476 20.9411212,12.3006498 18.8794625,5.21013422 C18.6481656,4.4146512 17.815796,3.95728801 17.020313,4.18858493 C16.22483,4.41988186 15.7674668,5.25225146 15.9987637,6.04773448 C17.5545305,11.3983723 15.4947755,16.91218 12.20112,16.4685838 C11.1396245,16.3256195 10.2545908,13.9137001 10.559117,10.8971808 C10.8852189,7.66694092 12.338079,5.5 14.1458601,5.5 C14.9742873,5.5 15.6458601,4.82842712 15.6458601,4 C15.6458601,3.17157288 14.9742873,2.5 14.1458601,2.5 Z M27.1458601,0.5 C19.579306,0.5 17.9619721,16.5206875 24.8006894,17.4417396 C30.9634133,18.2717476 33.9411212,10.3006498 31.8794625,3.21013422 C31.6481656,2.4146512 30.815796,1.95728801 30.020313,2.18858493 C29.22483,2.41988186 28.7674668,3.25225146 28.9987637,4.04773448 C30.5545305,9.39837228 28.4947755,14.91218 25.20112,14.4685838 C24.1396245,14.3256195 23.2545908,11.9137001 23.559117,8.89718076 C23.8852189,5.66694092 25.338079,3.5 27.1458601,3.5 C27.9742873,3.5 28.6458601,2.82842712 28.6458601,2 C28.6458601,1.17157288 27.9742873,0.5 27.1458601,0.5 Z M10.6054055,24.3724009 C14.6412194,22.5920874 18.9446527,22.2181917 22.729999,22.6505696 C23.2124186,22.7056736 23.545232,22.7590806 23.7041248,22.7910504 C24.516276,22.9544577 25.3071225,22.4285469 25.4705298,21.6163957 C25.6339371,20.8042446 25.1080263,20.0133981 24.2958752,19.8499908 C24.056513,19.8018304 23.640313,19.7350422 23.0704576,19.6699509 C18.8018347,19.1823712 13.989987,19.6004394 9.39459452,21.6275991 C8.63663844,21.9619553 8.2932429,22.8474494 8.62759911,23.6054055 C8.96195532,24.3633616 9.84744939,24.7067571 10.6054055,24.3724009 Z M7.51087241,29.4103224 C13.8122152,27.1277365 19.696901,26.6283582 24.4585023,27.1320643 C25.0196422,27.1914245 25.3994166,27.2490019 25.5787688,27.2837111 C26.3921053,27.4411127 27.179044,26.9093724 27.3364455,26.0960359 C27.4938471,25.2826994 26.9621068,24.4957607 26.1487703,24.3383592 C25.8872307,24.2877445 25.4228242,24.2173361 24.7740965,24.1487104 C19.5903301,23.6003456 13.2580842,24.1377041 6.48912759,26.5896776 C5.71022801,26.8718246 5.30753052,27.7319728 5.58967756,28.5108724 C5.8718246,29.289772 6.73197284,29.6924695 7.51087241,29.4103224 Z"/>
    <path fill="url(#100-a)" d="M3.35872436,10.5529146 C3.19598279,11.4417192 3.04562759,12.3047189 2.91018741,13.1330134 C2.2751085,17.0168854 2.01115858,19.7795838 2.26227571,21.2521545 C2.40153681,22.0687927 3.17644625,22.6179152 3.99308438,22.4786541 C4.80972252,22.3393931 5.35884511,21.5644836 5.21958401,20.7478455 C5.0473502,19.7378528 5.2965786,17.1292409 5.87086748,13.6171347 C6.00308096,12.8085734 6.15020244,11.9641344 6.30966524,11.0932366 C6.56247829,9.71251119 6.83357342,8.33312322 7.10465178,7.02127247 C7.19949712,6.56227998 7.28752336,6.1447121 7.36644783,5.77679431 C7.41361422,5.55692135 7.44712884,5.40307083 7.46471073,5.32345399 C7.85767844,3.54396123 5.33508511,2.73529112 4.62022501,4.41159454 C4.51434797,4.65986976 4.14795685,5.16197846 3.41978133,5.70693284 C2.89679046,6.09833045 2.26317283,6.43695197 1.50362883,6.70330171 C0.721874566,6.97743994 0.310370459,7.83340993 0.584508684,8.61516419 C0.85864691,9.39691846 1.7146169,9.80842257 2.49637117,9.53428434 C2.89810566,9.39340788 3.27869994,9.23555834 3.63850962,9.06215449 C3.54350361,9.55668611 3.44997204,10.05457 3.35872436,10.5529146 Z M14.1458601,2.5 C6.57930599,2.5 4.96197211,18.5206875 11.8006894,19.4417396 C17.9634133,20.2717476 20.9411212,12.3006498 18.8794625,5.21013422 C18.6481656,4.4146512 17.815796,3.95728801 17.020313,4.18858493 C16.22483,4.41988186 15.7674668,5.25225146 15.9987637,6.04773448 C17.5545305,11.3983723 15.4947755,16.91218 12.20112,16.4685838 C11.1396245,16.3256195 10.2545908,13.9137001 10.559117,10.8971808 C10.8852189,7.66694092 12.338079,5.5 14.1458601,5.5 C14.9742873,5.5 15.6458601,4.82842712 15.6458601,4 C15.6458601,3.17157288 14.9742873,2.5 14.1458601,2.5 Z M27.1458601,0.5 C19.579306,0.5 17.9619721,16.5206875 24.8006894,17.4417396 C30.9634133,18.2717476 33.9411212,10.3006498 31.8794625,3.21013422 C31.6481656,2.4146512 30.815796,1.95728801 30.020313,2.18858493 C29.22483,2.41988186 28.7674668,3.25225146 28.9987637,4.04773448 C30.5545305,9.39837228 28.4947755,14.91218 25.20112,14.4685838 C24.1396245,14.3256195 23.2545908,11.9137001 23.559117,8.89718076 C23.8852189,5.66694092 25.338079,3.5 27.1458601,3.5 C27.9742873,3.5 28.6458601,2.82842712 28.6458601,2 C28.6458601,1.17157288 27.9742873,0.5 27.1458601,0.5 Z M10.6054055,24.3724009 C14.6412194,22.5920874 18.9446527,22.2181917 22.729999,22.6505696 C23.2124186,22.7056736 23.545232,22.7590806 23.7041248,22.7910504 C24.516276,22.9544577 25.3071225,22.4285469 25.4705298,21.6163957 C25.6339371,20.8042446 25.1080263,20.0133981 24.2958752,19.8499908 C24.056513,19.8018304 23.640313,19.7350422 23.0704576,19.6699509 C18.8018347,19.1823712 13.989987,19.6004394 9.39459452,21.6275991 C8.63663844,21.9619553 8.2932429,22.8474494 8.62759911,23.6054055 C8.96195532,24.3633616 9.84744939,24.7067571 10.6054055,24.3724009 Z M7.51087241,29.4103224 C13.8122152,27.1277365 19.696901,26.6283582 24.4585023,27.1320643 C25.0196422,27.1914245 25.3994166,27.2490019 25.5787688,27.2837111 C26.3921053,27.4411127 27.179044,26.9093724 27.3364455,26.0960359 C27.4938471,25.2826994 26.9621068,24.4957607 26.1487703,24.3383592 C25.8872307,24.2877445 25.4228242,24.2173361 24.7740965,24.1487104 C19.5903301,23.6003456 13.2580842,24.1377041 6.48912759,26.5896776 C5.71022801,26.8718246 5.30753052,27.7319728 5.58967756,28.5108724 C5.8718246,29.289772 6.73197284,29.6924695 7.51087241,29.4103224 Z"/>
  </g>
</svg>
