<svg xmlns="http://www.w3.org/2000/svg" width="110" height="106" viewBox="0 0 110 106">
  <path fill="#3C4858" fill-rule="evenodd" d="M79.2439159,7.81031759 C117.017226,22.2017609 113.501854,46.9757497 100.418657,77.8969113 C87.3354604,108.818073 61.0099473,118.49117 29.236049,84.9617481 C-2.5378494,51.4323267 -9.40358093,46.9375137 13.5303197,23.0458942 C36.4642204,-0.845725267 41.4706057,-6.58112573 79.2439159,7.81031759 Z M50.2809783,59.2704225 C46.5831522,59.2704225 43.2815217,61.3605634 41.8288043,64.7570423 C41.4326087,65.5408451 41.8288043,66.5859155 42.6211957,66.8471831 C43.413587,67.2390845 44.4701087,66.8471831 44.7342391,66.0633803 C45.6586957,63.9732394 47.7717391,62.5362676 50.148913,62.5362676 C53.4505435,62.5362676 56.0918478,65.1489437 56.0918478,68.4147887 C56.0918478,69.3292254 56.8842391,69.9823944 57.6766304,69.9823944 C58.601087,69.9823944 59.261413,69.1985915 59.261413,68.4147887 C59.5255435,63.3200704 55.2994565,59.2704225 50.2809783,59.2704225 Z M33.7728261,77.9510563 C36.15,77.9510563 37.7347826,77.4285211 38.7913043,76.9059859 C39.7157609,77.8204225 40.9043478,78.4735915 42.225,78.4735915 L57.8086957,78.4735915 C58.7331522,78.4735915 59.3934783,77.6897887 59.3934783,76.9059859 C59.3934783,75.9915493 58.601087,75.3383803 57.8086957,75.3383803 L42.225,75.3383803 C41.6967391,75.3383803 41.036413,74.8158451 40.5081522,74.0320423 C40.5081522,74.0320423 40.5081522,73.9014085 40.376087,73.9014085 C39.9798913,73.1176056 39.7157609,72.0725352 39.7157609,70.896831 C39.7157609,65.1489437 45.3945652,50.7792254 53.3184783,44.1169014 C53.9788043,45.684507 55.4315217,47.6440141 58.4690217,49.6035211 C61.5065217,51.5630282 64.2798913,52.0855634 66.1288043,52.0855634 C66.1288043,52.0855634 66.2608696,52.0855634 66.2608696,52.0855634 C65.8646739,59.5316901 65.9967391,64.4957746 69.2983696,74.0320423 C69.5625,74.6852113 70.0907609,75.0771127 70.8831522,75.0771127 L74.1847826,75.0771127 C75.1092391,75.0771127 75.7695652,74.2933099 75.7695652,73.509507 C75.7695652,72.7257042 74.9771739,71.9419014 74.1847826,71.9419014 L72.0717391,71.9419014 C69.1663043,62.928169 69.1663043,58.4866197 69.6945652,50.5179577 L70.0907609,48.0359155 C71.2793478,48.0359155 72.3358696,47.9052817 73.2603261,47.9052817 C74.8451087,47.9052817 76.1657609,47.7746479 77.7505435,47.7746479 C80.6559783,47.7746479 82.5048913,46.5989437 83.1652174,44.2475352 C83.4293478,43.071831 83.6934783,42.418662 83.6934783,42.1573944 C83.9576087,41.6348592 84.3538043,40.7204225 84.3538043,39.2834507 C84.3538043,36.1482394 81.8445652,35.6257042 80.7880435,35.3644366 C80.3918478,35.2338028 79.9956522,35.2338028 79.7315217,35.103169 C78.4108696,34.8419014 77.7505435,34.7112676 76.826087,33.796831 C76.5619565,33.5355634 76.2978261,33.2742958 76.0336957,33.0130282 C74.1847826,30.9228873 71.2793478,27.9183099 66.3929348,27.9183099 C59.3934783,27.9183099 56.4880435,32.6211268 55.6956522,35.4950704 C54.375,36.9320423 53.5826087,39.4140845 53.186413,40.5897887 C43.0173913,47.5133803 36.6782609,64.3651408 36.6782609,71.1580986 C36.6782609,72.3338028 36.9423913,73.509507 37.2065217,74.5545775 C36.5461957,74.8158451 35.6217391,75.0771127 33.9048913,75.0771127 C32.0559783,75.0771127 27.8298913,74.2933099 27.8298913,66.7165493 C27.8298913,63.581338 28.4902174,60.8380282 29.8108696,58.7478873 C30.3391304,57.9640845 30.075,56.9190141 29.2826087,56.5271127 C28.4902174,56.0045775 27.4336957,56.2658451 27.0375,57.0496479 C25.4527174,59.7929577 24.6603261,63.0588028 24.6603261,66.7165493 C24.3961957,74.9464789 29.2826087,77.9510563 33.7728261,77.9510563 Z M58.2048913,37.0626761 C58.4690217,36.8014085 58.601087,36.5401408 58.7331522,36.1482394 C58.7331522,35.8869718 59.6576087,30.7922535 66.2608696,30.7922535 C69.6945652,30.7922535 71.8076087,33.0130282 73.5244565,34.8419014 C73.788587,35.103169 74.0527174,35.4950704 74.3168478,35.756338 C76.0336957,37.4545775 77.486413,37.7158451 79.0711957,38.1077465 C79.3353261,38.1077465 79.7315217,38.2383803 80.1277174,38.3690141 C80.9201087,38.4996479 81.0521739,38.6302817 81.0521739,38.6302817 C81.0521739,38.6302817 81.0521739,38.7609155 81.0521739,39.0221831 C81.0521739,39.9366197 80.7880435,40.4591549 80.7880435,40.4591549 C80.6559783,40.5897887 80.6559783,40.7204225 80.523913,40.9816901 C80.523913,40.9816901 80.3918478,41.2429577 79.863587,43.3330986 C79.7315217,43.9862676 79.4673913,44.378169 77.6184783,44.378169 C76.0336957,44.378169 74.5809783,44.378169 72.9961957,44.5088028 C71.6755435,44.5088028 70.2228261,44.6394366 68.5059783,44.6394366 C67.713587,44.6394366 67.0532609,45.2926056 66.9211957,45.9457746 L66.525,48.6890845 C65.336413,48.8197183 63.0913043,48.5584507 60.3179348,46.7295775 C56.223913,44.1169014 56.0918478,41.765493 56.0918478,41.5042254 C56.4880435,39.9366197 57.4125,37.7158451 58.2048913,37.0626761 Z M65.0722826,78.4735915 L68.6380435,78.4735915 C69.5625,78.4735915 70.2228261,77.6897887 70.2228261,76.9059859 C70.2228261,75.9915493 69.4304348,75.3383803 68.6380435,75.3383803 L66.2608696,75.3383803 C65.4684783,72.7257042 63.4875,65.8021127 62.8271739,57.8334507 C62.6951087,56.9190141 61.9027174,56.2658451 61.1103261,56.3964789 C60.1858696,56.5271127 59.5255435,57.3109155 59.6576087,58.0947183 C60.45,68.5454225 63.4875,77.0366197 63.6195652,77.4285211 C63.7516304,78.0816901 64.2798913,78.4735915 65.0722826,78.4735915 Z M65.4684783,42.9411972 C69.1663043,42.9411972 70.4869565,40.3285211 70.4869565,38.1077465 C70.4869565,36.1482394 69.6945652,34.45 69.0342391,33.4049296 C68.5059783,32.6211268 67.5815217,32.3598592 66.7891304,32.8823944 C65.9967391,33.4049296 65.7326087,34.3193662 66.2608696,35.103169 C66.6570652,35.756338 67.1853261,36.8014085 67.1853261,37.9771127 C67.1853261,39.1528169 66.6570652,39.5447183 65.4684783,39.5447183 C63.2233696,39.5447183 62.8271739,37.4545775 62.6951087,37.0626761 C62.5630435,36.1482394 61.7706522,35.4950704 60.8461957,35.6257042 C59.9217391,35.756338 59.261413,36.5401408 59.3934783,37.4545775 C59.7896739,39.5447183 61.3744565,42.9411972 65.4684783,42.9411972 Z" transform="translate(.5)"/>
</svg>
