<svg xmlns="http://www.w3.org/2000/svg" width="32" height="32" viewBox="0 0 32 32">
  <defs>
    <linearGradient id="choose-plan-a" x1="50%" x2="50%" y1="0%" y2="100%">
      <stop offset="0%" stop-color="#FFF" stop-opacity=".95"/>
      <stop offset="100%" stop-color="#E1E1E1"/>
    </linearGradient>
  </defs>
  <g fill="none" fill-rule="evenodd">
    <g fill-rule="nonzero">
      <circle cx="16" cy="16" r="16" fill="#3EB2EF" opacity=".2"/>
      <circle cx="16" cy="16" r="12" fill="#00A9FF"/>
    </g>
    <g transform="translate(8 8)">
      <g transform="translate(7 2)">
        <path fill="#000" fill-rule="nonzero" d="M0.139084298,2.23565409 C0.197785871,1.21472409 0.917489345,0.328305138 1.76832962,0.253880031 L4.67072975,0 L7.23385401,0.242956246 C8.07368294,0.322562862 8.79739543,1.21470831 8.84982008,2.22614898 L8.96307503,4.41119982 C9.01571947,5.42688028 9.01157826,7.07641385 8.95381201,8.09577231 L8.8590831,9.76738292 C8.80132285,10.7866356 8.07905949,11.675097 7.2367718,11.7526541 L4.55053599,12 L1.76321229,11.7493791 C0.924932703,11.6740055 0.203117218,10.7869075 0.150883645,9.76586742 L0.0359647067,7.51947785 C-0.0162202437,6.49938812 -0.0110405411,4.8466068 0.0477640535,3.82388474 L0.139084298,2.23565409 Z"/>
        <path fill="url(#choose-plan-a)" d="M0.139084298,2.23565409 C0.197785871,1.21472409 0.917489345,0.328305138 1.76832962,0.253880031 L4.67072975,0 L7.23385401,0.242956246 C8.07368294,0.322562862 8.79739543,1.21470831 8.84982008,2.22614898 L8.96307503,4.41119982 C9.01571947,5.42688028 9.01157826,7.07641385 8.95381201,8.09577231 L8.8590831,9.76738292 C8.80132285,10.7866356 8.07905949,11.675097 7.2367718,11.7526541 L4.55053599,12 L1.76321229,11.7493791 C0.924932703,11.6740055 0.203117218,10.7869075 0.150883645,9.76586742 L0.0359647067,7.51947785 C-0.0162202437,6.49938812 -0.0110405411,4.8466068 0.0477640535,3.82388474 L0.139084298,2.23565409 Z"/>
      </g>
      <path fill="#000" fill-rule="nonzero" d="M0.154538109,2.98087212 C0.219762079,1.61963212 1.01943261,0.437740185 1.96481069,0.338506708 L5.18969972,0 L8.03761556,0.323941662 C8.97075882,0.430083815 9.77488381,1.61961108 9.83313342,2.96819865 L9.95897225,5.88159975 C10.0174661,7.23584037 10.0128647,9.43521846 9.94868001,10.7943631 L9.84342566,13.0231772 C9.77924761,14.3821808 8.97673277,15.5667961 8.04085756,15.6702054 L5.0561511,16 L1.95912477,15.6658388 C1.027703,15.5653407 0.225685798,14.3825434 0.167648494,13.0211566 L0.0399607852,10.0259705 C-0.018022493,8.66585083 -0.0122672679,6.4621424 0.0530711705,5.09851298 L0.154538109,2.98087212 Z"/>
      <path fill="url(#choose-plan-a)" d="M0.154538109,2.98087212 C0.219762079,1.61963212 1.01943261,0.437740185 1.96481069,0.338506708 L5.18969972,0 L8.03761556,0.323941662 C8.97075882,0.430083815 9.77488381,1.61961108 9.83313342,2.96819865 L9.95897225,5.88159975 C10.0174661,7.23584037 10.0128647,9.43521846 9.94868001,10.7943631 L9.84342566,13.0231772 C9.77924761,14.3821808 8.97673277,15.5667961 8.04085756,15.6702054 L5.0561511,16 L1.95912477,15.6658388 C1.027703,15.5653407 0.225685798,14.3825434 0.167648494,13.0211566 L0.0399607852,10.0259705 C-0.018022493,8.66585083 -0.0122672679,6.4621424 0.0530711705,5.09851298 L0.154538109,2.98087212 Z"/>
    </g>
  </g>
</svg>
