<svg xmlns="http://www.w3.org/2000/svg" xmlns:xlink="http://www.w3.org/1999/xlink" width="126" height="126" viewBox="0 0 126 126">
  <defs>
    <circle id="monthly-b" cx="50" cy="50" r="50"/>
    <filter id="monthly-a" width="139%" height="139%" x="-19.5%" y="-19.5%" filterUnits="objectBoundingBox">
      <feOffset in="SourceAlpha" result="shadowOffsetOuter1"/>
      <feGaussianBlur in="shadowOffsetOuter1" result="shadowBlurOuter1" stdDeviation="6.5"/>
      <feColorMatrix in="shadowBlurOuter1" values="0 0 0 0 0   0 0 0 0 0   0 0 0 0 0  0 0 0 0.08 0"/>
    </filter>
  </defs>
  <g fill="none" fill-rule="evenodd" transform="translate(13 13)">
    <g fill-rule="nonzero">
      <use fill="#000" filter="url(#monthly-a)" xlink:href="#monthly-b"/>
      <use fill="#FFF" fill-rule="evenodd" xlink:href="#monthly-b"/>
      <circle cx="50" cy="50" r="37.5" fill="#3C4858"/>
    </g>
    <path fill="#FFF" d="M8.78503653,7.08131983 C22.1998892,-4.93125583 44.352455,1.67091679 51.9058674,13.1242288 C59.4592798,24.5775408 59.3774896,33.5003745 42.9841752,43.0906961 C26.5908608,52.6810177 16.4129817,54.6570229 8.78503653,43.0906961 C1.15709135,31.5243693 -4.62981614,19.0938955 8.78503653,7.08131983 Z M46.1722222,12.692745 C46.0166667,12.4589202 45.7833333,12.303037 45.55,12.303037 L35.4388889,10.3544968 C35.1277778,10.2765552 34.7388889,10.4324384 34.5055556,10.6662632 C34.35,10.8221464 34.35,10.9780296 34.2722222,11.1339129 C31.6277778,10.5883216 28.8277778,10.5883216 28.6722222,10.5883216 C28.5166667,10.5883216 25.8722222,10.5883216 23.15,11.0559712 C23.15,10.900088 23.0722222,10.7442048 22.9166667,10.5883216 C22.6833333,10.3544968 22.3722222,10.1986136 21.9833333,10.2765552 L11.95,12.303037 C11.7166667,12.303037 11.4833333,12.4589202 11.3277778,12.692745 C11.1722222,12.9265698 11.1722222,13.1603947 11.1722222,13.4721611 L13.8166667,24.7736942 C14.05,25.7869352 14.9055556,26.4884096 15.9166667,26.5663512 C15.9944444,26.5663512 15.9944444,26.5663512 16.0722222,26.5663512 C16.3055556,26.5663512 16.5388889,26.5663512 16.7722222,26.4884096 L16.7722222,28.7487163 C16.7722222,35.4516945 19.2611111,39.4267165 23.6166667,39.738483 C24.1611111,40.6737823 25.6388889,42.3884977 28.75,42.3884977 C31.8611111,42.3884977 33.3388889,40.6737823 33.8833333,39.738483 C38.2388889,39.4267165 40.7277778,35.4516945 40.7277778,28.7487163 L40.7277778,26.4884096 C40.9611111,26.5663512 41.1944444,26.5663512 41.4277778,26.5663512 C41.5055556,26.5663512 41.5055556,26.5663512 41.5833333,26.5663512 C42.5944444,26.4884096 43.45,25.7869352 43.6833333,24.7736942 L46.3277778,13.4721611 C46.4055556,13.2383363 46.3277778,12.9265698 46.1722222,12.692745 Z M16.0722222,24.617811 C15.9944444,24.617811 15.7611111,24.5398694 15.7611111,24.3060446 L13.35,14.0177523 L20.8166667,12.5368618 L16.4611111,24.3839862 C16.3833333,24.617811 16.2277778,24.617811 16.0722222,24.617811 Z M28.75,40.4399575 C27.4277778,40.4399575 26.4944444,40.0502494 25.95,39.5825998 C27.2722222,39.2708333 28.1277778,38.6473005 28.75,37.945826 C29.3722222,38.6473005 30.2277778,39.2708333 31.55,39.5825998 C31.0055556,39.9723078 30.0722222,40.4399575 28.75,40.4399575 Z M38.7833333,28.7487163 C38.7833333,32.8796215 37.85,37.7899428 33.3388889,37.7899428 C30.5388889,37.7899428 29.9166667,36.153169 29.7611111,35.6855194 C29.7611111,35.6075778 29.7611111,35.6075778 29.7611111,35.5296362 L29.7611111,34.6722785 L31.0833333,33.3472711 C31.4722222,32.9575631 31.6277778,32.3340302 31.3944444,31.8663806 C31.1611111,31.3207893 30.6944444,31.0090229 30.15,31.0090229 L27.4277778,31.0090229 C26.8833333,31.0090229 26.3388889,31.3207893 26.1833333,31.8663806 C25.95,32.4119718 26.1055556,32.9575631 26.4944444,33.3472711 L27.8166667,34.6722785 L27.8166667,35.6855194 C27.7388889,36.0752274 27.1944444,37.8678844 24.2388889,37.8678844 C19.7277778,37.8678844 18.7944444,32.9575631 18.7944444,28.8266579 L18.7944444,23.9163366 L22.5277778,13.2383363 C25.25,12.5368618 28.5944444,12.5368618 28.6722222,12.5368618 L28.75,12.5368618 C28.75,12.5368618 32.1722222,12.5368618 34.9722222,13.2383363 L38.7833333,23.838395 L38.7833333,28.7487163 Z M41.7388889,24.3839862 C41.6611111,24.617811 41.5055556,24.6957526 41.4277778,24.6957526 C41.35,24.6957526 41.1166667,24.6957526 41.0388889,24.4619278 L36.7611111,12.5368618 L44.2277778,14.0177523 L41.7388889,24.3839862 Z M23.5388889,24.1501614 C24.1402656,24.1501614 24.6277778,23.6616223 24.6277778,23.0589789 C24.6277778,22.4563354 24.1402656,21.9677964 23.5388889,21.9677964 C22.9375122,21.9677964 22.45,22.4563354 22.45,23.0589789 C22.45,23.6616223 22.9375122,24.1501614 23.5388889,24.1501614 Z M21.3611111,30.3075484 C20.7388889,30.3075484 20.1944444,30.8531397 20.1944444,31.4766725 C20.1944444,31.788439 20.2722222,32.1002054 20.5055556,32.3340302 C20.7388889,32.567855 21.05,32.7237383 21.3611111,32.7237383 C21.9833333,32.7237383 22.5277778,32.178147 22.5277778,31.5546141 C22.5277778,30.8531397 21.9833333,30.3075484 21.3611111,30.3075484 Z M23.6944444,34.2046288 C23.0722222,34.2046288 22.5277778,34.7502201 22.5277778,35.3737529 C22.5277778,35.6855194 22.6055556,35.9972858 22.8388889,36.2311106 C23.0722222,36.4649354 23.3833333,36.6208187 23.6944444,36.6208187 C24.3166667,36.6208187 24.8611111,36.0752274 24.8611111,35.4516945 C24.8611111,34.7502201 24.3166667,34.2046288 23.6944444,34.2046288 Z M36.1388889,30.3075484 C35.5166667,30.3075484 34.9722222,30.8531397 34.9722222,31.4766725 C34.9722222,32.1002054 35.5166667,32.6457967 36.1388889,32.6457967 C36.45,32.6457967 36.7611111,32.4899134 36.9944444,32.2560886 C37.2277778,32.0222638 37.3055556,31.7104974 37.3055556,31.3987309 C37.3055556,30.8531397 36.7611111,30.3075484 36.1388889,30.3075484 Z M33.8055556,34.2046288 C33.1833333,34.2046288 32.6388889,34.7502201 32.6388889,35.3737529 C32.6388889,35.9972858 33.1833333,36.5428771 33.8055556,36.5428771 C34.1166667,36.5428771 34.4277778,36.3869938 34.6611111,36.153169 C34.8944444,35.9193442 34.9722222,35.6075778 34.9722222,35.2958113 C34.9722222,34.7502201 34.4277778,34.2046288 33.8055556,34.2046288 Z M33.8833333,24.1501614 C34.4847101,24.1501614 34.9722222,23.6616223 34.9722222,23.0589789 C34.9722222,22.4563354 34.4847101,21.9677964 33.8833333,21.9677964 C33.2819566,21.9677964 32.7944444,22.4563354 32.7944444,23.0589789 C32.7944444,23.6616223 33.2819566,24.1501614 33.8833333,24.1501614 Z" transform="translate(21.25 24.375)"/>
  </g>
</svg>
