<svg xmlns="http://www.w3.org/2000/svg" width="114" height="44" viewBox="0 0 114 44">
  <g fill="none" fill-rule="evenodd">
    <path fill="#3C4858" d="M50.895665,43.2158974 C51.4684729,43.2158974 51.822266,42.7928205 51.8559606,42.2512821 C51.8728079,42.014359 51.8728079,41.7605128 51.8728079,41.4897436 C51.8728079,41.3712821 51.8896552,41.134359 51.8896552,40.9989744 C51.9065025,40.1697436 51.9065025,39.3574359 51.9065025,38.5112821 C51.9065025,37.3435897 51.8896552,35.9558974 51.8559606,34.7882051 L51.8559606,34.4835897 C51.8559606,33.9420513 51.8559606,33.3835897 51.822266,32.8758974 C51.7717241,32.3174359 51.3842365,31.9282051 50.8114286,31.9282051 C50.4070936,31.9282051 50.1038424,32.1312821 49.9353695,32.5035897 L49.9353695,32.4866667 C49.3794089,33.654359 48.806601,34.8220513 48.2337931,35.9897436 L46.7006897,32.6389744 C46.5153695,32.2666667 46.1278818,31.9451282 45.6730049,31.9451282 C45.100197,31.9451282 44.7632512,32.3005128 44.6958621,32.8589744 C44.6621675,33.2312821 44.6453202,33.7051282 44.6453202,34.094359 C44.577931,34.974359 44.5273892,35.8882051 44.4768473,36.7851282 C44.4768473,36.9882051 44.4431527,37.2082051 44.4431527,37.4112821 L44.4431527,37.394359 C44.3589163,39.0020513 44.2746798,40.6097436 44.2746798,42.2005128 C44.2746798,42.7928205 44.6453202,43.2158974 45.2518227,43.2158974 C45.8414778,43.2158974 46.1784236,42.8266667 46.2289655,42.2682051 C46.2626601,41.8451282 46.2795074,41.3882051 46.2795074,40.9482051 C46.2795074,40.6266667 46.2795074,40.3220513 46.2963547,40.0005128 C46.3300493,38.9682051 46.3805911,37.8005128 46.4479803,36.7512821 C46.9028571,37.7835897 46.8691626,37.6482051 47.3408867,38.6805128 L47.3240394,38.6635897 C47.4419704,39.0189744 47.762069,39.3574359 48.2169458,39.3574359 C48.6381281,39.3574359 48.924532,39.0528205 49.1098522,38.714359 C49.3794089,38.1389744 49.6658128,37.5466667 49.9522167,36.9712821 C49.969064,37.9358974 49.9522167,37.5466667 49.9522167,38.5112821 C49.9522167,39.1374359 49.9353695,39.7466667 49.9185222,40.3558974 C49.9016749,40.9651282 49.9016749,41.5912821 49.9016749,42.2005128 C49.9016749,42.7928205 50.3060099,43.2158974 50.895665,43.2158974 Z M61.6947783,37.5805128 C61.6947783,38.6128205 61.5094581,39.6958974 61.1388177,40.6605128 C60.5828571,42.014359 59.5383251,43.5035897 57.9041379,43.5035897 C56.6742857,43.5035897 55.9161576,42.4205128 55.5118227,41.4728205 C54.9727094,40.2882051 54.7705419,38.6128205 54.7705419,37.3605128 C54.7705419,35.6682051 55.1917241,33.3328205 56.6742857,32.2158974 C57.1797044,31.8605128 57.7525123,31.674359 58.3590148,31.674359 C60.2459113,31.674359 61.155665,34.0097436 61.4757635,35.4651282 C61.6105419,36.1420513 61.6947783,36.8697436 61.6947783,37.5805128 Z M59.7404926,37.5805128 C59.7404926,36.3958974 59.470936,34.6866667 58.6454187,33.8405128 C58.5780296,33.7558974 58.4432512,33.6374359 58.3590148,33.6374359 C58.1736946,33.6374359 57.9715271,33.7220513 57.8367488,33.8405128 C56.8933005,34.5005128 56.7416749,36.1589744 56.7416749,37.2589744 C56.7416749,38.1897436 56.8764532,39.8312821 57.2976355,40.6435897 C57.3987192,40.8635897 57.7019704,41.5235897 57.9041379,41.5235897 C58.1231527,41.5235897 58.3421675,41.3882051 58.5274877,41.2020513 C59.4372414,40.3728205 59.7404926,38.7820513 59.7404926,37.5805128 Z M71.1966502,33.0620513 C71.1966502,32.4866667 70.7923153,32.0974359 70.2026601,32.0974359 C69.6298522,32.0974359 69.2255172,32.4866667 69.2255172,33.0620513 C69.2255172,34.6358974 69.20867,36.2266667 69.1918227,37.8005128 C69.1918227,37.8512821 69.1749754,37.9020513 69.1749754,37.9528205 C68.1978325,35.8205128 67.6924138,34.7374359 66.7321182,32.6728205 C66.5636453,32.334359 66.2266995,31.9789744 65.8055172,31.9789744 C65.1821675,31.9789744 64.862069,32.5374359 64.862069,33.0620513 C64.862069,35.0589744 64.8115271,37.0389744 64.7441379,39.0358974 C64.7441379,39.3066667 64.7272906,39.5605128 64.7104433,39.8312821 C64.6935961,40.6605128 64.6767488,41.5235897 64.6767488,42.3697436 C64.6767488,42.9282051 65.0473892,43.3512821 65.6370443,43.3512821 C66.2603941,43.3512821 66.5636453,42.9789744 66.6310345,42.4205128 C66.6478818,42.3358974 66.6478818,42.1666667 66.6478818,42.0482051 L66.6478818,41.7266667 C66.6478818,41.3035897 66.6815764,40.6097436 66.6815764,40.2035897 L66.7321182,38.1558974 C66.7321182,37.9020513 66.7321182,37.6312821 66.7489655,37.394359 C67.7092611,39.5097436 68.2483744,40.6266667 69.1918227,42.674359 C69.3434483,43.0128205 69.6635468,43.3682051 70.1015764,43.3682051 C70.7586207,43.3682051 71.01133,42.8266667 71.0450246,42.3189744 C71.0618719,42.1158974 71.0618719,41.5574359 71.0618719,41.354359 L71.1124138,39.2558974 C71.1629557,37.1912821 71.1966502,35.1435897 71.1966502,33.0620513 Z M78.542069,33.4682051 L78.777931,33.4682051 C78.8790148,33.4682051 78.9800985,33.4512821 79.064335,33.4512821 C79.2159606,33.4512821 79.4181281,33.4512821 79.5697537,33.434359 C80.108867,33.3835897 80.4963547,33.0451282 80.4963547,32.4528205 C80.4963547,31.8435897 80.0751724,31.4712821 79.4855172,31.4712821 C79.2665025,31.4712821 78.9632512,31.4882051 78.7273892,31.5051282 C78.6094581,31.5051282 78.4915271,31.5220513 78.3735961,31.5220513 C77.6491626,31.5389744 77.093202,31.5558974 76.4361576,31.6066667 C76.3687685,31.6066667 76.3013793,31.6235897 76.2171429,31.6235897 L74.9535961,31.6912821 L74.9704433,31.6912821 C74.8862069,31.6912821 74.8019704,31.7082051 74.717734,31.7082051 C74.5492611,31.7082051 74.4144828,31.7082051 74.2797044,31.7251282 C73.7742857,31.8266667 73.4373399,32.0297436 73.4373399,32.6558974 C73.4373399,33.2312821 73.8922167,33.6882051 74.4650246,33.6882051 C74.9367488,33.6882051 75.3410837,33.6712821 75.7454187,33.6374359 C75.762266,35.2451282 75.7791133,36.4635897 75.7791133,38.0712821 C75.7791133,38.7820513 75.7791133,39.5097436 75.762266,40.2374359 C75.7454187,40.9482051 75.7285714,41.6758974 75.7285714,42.4035897 C75.7285714,42.9789744 76.1329064,43.4020513 76.7225616,43.4020513 C77.3122167,43.4020513 77.6660099,42.9958974 77.7165517,42.454359 C77.733399,42.3189744 77.733399,42.0820513 77.733399,41.9128205 L77.733399,41.0497436 C77.7502463,40.0512821 77.7502463,39.0697436 77.7502463,38.1051282 C77.7502463,36.5651282 77.733399,35.0420513 77.7165517,33.5020513 L78.542069,33.4682051 Z M88.0776355,43.4528205 C88.6672906,43.4528205 89.0210837,43.0805128 89.0716256,42.4882051 L89.0716256,42.014359 C89.0716256,41.8620513 89.0716256,41.7097436 89.0884729,41.5405128 C89.1053202,40.7958974 89.1221675,40.034359 89.1558621,39.2897436 C89.1895567,38.274359 89.2400985,37.2589744 89.2737931,36.2435897 C89.324335,35.0420513 89.3748768,33.8405128 89.4085714,32.6389744 C89.4254187,31.9958974 88.9705419,31.5897436 88.4145813,31.5897436 C87.8080788,31.5897436 87.5048276,31.9620513 87.4374384,32.5205128 C87.4205911,32.7912821 87.4205911,33.0789744 87.4205911,33.3835897 C87.4205911,33.5358974 87.4037438,33.6712821 87.4037438,33.8235897 L87.4037438,33.8066667 L87.3026601,36.074359 C86.544532,36.074359 85.8537931,36.0574359 85.095665,36.0235897 L85.2978325,32.6389744 C85.2978325,31.9958974 84.859803,31.5897436 84.3038424,31.5897436 C83.6973399,31.5897436 83.3940887,31.9620513 83.3266995,32.5035897 C83.2761576,32.8928205 83.2593103,33.3328205 83.2424631,33.7728205 L83.1076847,36.3282051 C83.0402956,37.7158974 82.9729064,39.1374359 82.9223645,40.5420513 L82.9223645,41.1682051 C82.9055172,41.5912821 82.88867,42.0312821 82.88867,42.454359 C82.88867,43.0466667 83.2593103,43.4528205 83.8658128,43.4528205 C84.455468,43.4528205 84.7924138,43.0635897 84.8429557,42.5051282 C84.8766502,42.1666667 84.8766502,41.7605128 84.8766502,41.3882051 C84.8766502,41.2189744 84.8934975,41.0328205 84.8934975,40.8635897 C84.9271921,39.8820513 84.9440394,38.9512821 84.9945813,37.9866667 C85.8369458,38.054359 86.3929064,38.054359 87.2184236,38.054359 C87.1510345,39.5266667 87.1173399,40.9989744 87.1173399,42.454359 C87.1173399,43.0466667 87.4879803,43.4528205 88.0776355,43.4528205 Z M95.2714286,43.4358974 C95.9621675,43.4358974 96.7876847,43.4189744 97.4615764,43.3005128 C97.9838424,43.2158974 98.3207882,42.894359 98.3207882,42.3358974 C98.3207882,41.7774359 97.9333005,41.3374359 97.3604926,41.3374359 L97.2257143,41.3374359 C96.5855172,41.4220513 95.9790148,41.4728205 95.355665,41.4728205 C95.0524138,41.4728205 94.7491626,41.4558974 94.4459113,41.4389744 C94.4964532,38.4435897 94.5806897,35.4651282 94.6817734,32.4866667 C94.6649261,31.894359 94.2268966,31.454359 93.7046305,31.454359 C93.1149754,31.454359 92.7780296,31.8266667 92.7106404,32.3682051 C92.6769458,32.7574359 92.6600985,33.214359 92.6432512,33.6374359 C92.6264039,34.5174359 92.5927094,35.6174359 92.5758621,36.514359 C92.5421675,37.7158974 92.5253202,39.1882051 92.5084729,40.3897436 C92.4916256,41.0328205 92.4747783,41.6758974 92.4747783,42.3020513 C92.4747783,42.9451282 92.8454187,43.2497436 93.4182266,43.3005128 C94.0078818,43.3851282 94.6480788,43.4358974 95.2714286,43.4358974 Z M104.166798,38.2574359 C105.02601,36.5482051 105.918916,34.7712821 106.424335,32.8082051 C106.441182,32.7235897 106.474877,32.6220513 106.474877,32.5205128 C106.474877,31.9789744 105.969458,31.5558974 105.464039,31.5558974 C104.975468,31.5558974 104.689064,31.8435897 104.537438,32.3005128 L104.318424,33.0112821 C104.251034,33.2312821 104.149951,33.4682051 104.099409,33.6882051 L104.099409,33.654359 C103.813005,34.4497436 103.492906,35.1435897 103.139113,35.8882051 C102.768473,35.2112821 102.397833,34.4328205 102.16197,33.6712821 C102.044039,33.3328205 101.993498,33.0282051 101.909261,32.7405128 L101.825025,32.4358974 C101.690246,31.9451282 101.403842,31.6235897 100.864729,31.6235897 C100.325616,31.6235897 99.8707389,32.0128205 99.8707389,32.5882051 C99.8707389,32.6389744 99.8707389,32.7235897 99.9044335,32.8082051 L99.8875862,32.774359 C100.325616,34.8728205 101.134286,36.4128205 102.212512,38.1558974 L102.178818,42.3189744 C102.178818,42.8774359 102.583153,43.3005128 103.172808,43.3005128 C103.745616,43.3005128 104.133103,42.9112821 104.133103,42.3358974 L104.166798,38.2574359 Z"/>
    <path fill="#00A9FF" d="M20.7502463,14.1025641 C19.9265969,15.4376135 18.7285793,16.5282009 17.1561576,17.374359 C15.583736,18.2205171 13.7118335,18.7188027 11.5403941,18.8692308 L10.3330049,25.6666667 C9.86502229,28.2803549 8.59212862,29.5871795 6.51428571,29.5871795 C5.37240808,29.5871795 4.31946295,29.2487213 3.35541872,28.5717949 C2.39137449,27.8948684 1.61921472,26.8606907 1.03891626,25.4692308 C0.458617788,24.0777708 0.168472906,22.3666768 0.168472906,20.3358974 C0.168472906,16.5187843 0.781520963,13.2799278 2.00763547,10.6192308 C3.23374997,7.95853371 4.88102414,5.96539124 6.94950739,4.63974359 C9.01799064,3.31409594 11.2970319,2.65128205 13.7866995,2.65128205 C15.5463142,2.65128205 17.0391564,2.96153536 18.2652709,3.58205128 C19.4913854,4.20256721 20.4179772,5.04401178 21.0450739,6.10641026 C21.6721706,7.16880873 21.9857143,8.36751469 21.9857143,9.7025641 C21.9857143,11.3008627 21.5738957,12.7675147 20.7502463,14.1025641 Z M102.296784,24.970312 C101.875996,25.2722788 101.429531,25.5373025 100.957389,25.7653846 C99.7312747,26.3576953 98.5472963,26.6538462 97.4054187,26.6538462 C95.5709268,26.6538462 94.1436012,26.1320565 93.123399,25.0884615 C93.034472,24.9974955 92.9494208,24.9039937 92.8682454,24.8079562 C92.5051263,25.1342756 92.1315574,25.4299136 91.7475369,25.6948718 C90.8209313,26.3341912 89.7679862,26.6538462 88.58867,26.6538462 C87.6339854,26.6538462 86.9133029,26.3764985 86.426601,25.8217949 C85.939899,25.2670912 85.6965517,24.4632531 85.6965517,23.4102564 C85.6965517,22.8837581 85.8275849,21.9435965 86.0896552,20.5897436 C86.3330061,19.4051223 86.4546798,18.5871817 86.4546798,18.1358974 C86.4546798,17.8350412 86.3517252,17.6846154 86.1458128,17.6846154 C85.9024618,17.6846154 85.5608396,17.9995695 85.120936,18.6294872 C84.6810323,19.2594049 84.2317757,20.0914478 83.7731527,21.125641 C83.3145297,22.1598342 82.944829,23.2504216 82.6640394,24.3974359 C82.458127,25.281201 82.2194595,25.8782036 81.9480296,26.1884615 C81.6765996,26.4987195 81.2507418,26.6538462 80.6704433,26.6538462 C79.9591097,26.6538462 79.4583758,26.2777815 79.1682266,25.525641 C79.1282636,25.4220468 79.0910528,25.3098919 79.056594,25.1891764 C78.835438,25.3686096 78.61058,25.5371746 78.3820197,25.6948718 C77.4554141,26.3341912 76.402469,26.6538462 75.2231527,26.6538462 C74.324626,26.6538462 73.6647804,26.3059864 73.2435961,25.6102564 C72.8224117,24.9145264 72.6118227,23.9367584 72.6118227,22.6769231 C72.2935945,23.9555619 71.8162593,24.9380308 71.179803,25.624359 C70.5433466,26.3106872 69.8601022,26.6538462 69.1300493,26.6538462 C68.2876805,26.6538462 67.5997564,26.2636791 67.0662562,25.4833333 C66.9724313,25.3460966 66.8868569,25.2028991 66.8095328,25.0537408 C66.5358474,25.284375 66.2563975,25.4980851 65.9711823,25.6948718 C65.0445766,26.3341912 63.9916315,26.6538462 62.8123153,26.6538462 C61.8576307,26.6538462 61.1369482,26.3764985 60.6502463,25.8217949 C60.1635444,25.2670912 59.920197,24.4632531 59.920197,23.4102564 C59.920197,22.8837581 60.0512302,21.9435965 60.3133005,20.5897436 C60.5566515,19.4051223 60.6783251,18.5871817 60.6783251,18.1358974 C60.6783251,17.8350412 60.5753705,17.6846154 60.3694581,17.6846154 C60.1261072,17.6846154 59.7798052,17.9995695 59.3305419,18.6294872 C58.8812785,19.2594049 58.432022,20.0914478 57.9827586,21.125641 C57.5334953,22.1598342 57.1684743,23.2504216 56.8876847,24.3974359 C56.6817724,25.3000045 56.4431048,25.9017079 56.1716749,26.2025641 C55.9002449,26.5034203 55.4650276,26.6538462 54.8660099,26.6538462 C54.2482728,26.6538462 53.7849769,26.3576953 53.4761084,25.7653846 C53.1672398,25.173074 53.0128079,24.4538504 53.0128079,23.6076923 C53.0128079,22.8931588 53.106403,21.8589811 53.2935961,20.5051282 C53.4433505,19.3017034 53.5182266,18.5119677 53.5182266,18.1358974 C53.5182266,17.8350412 53.415272,17.6846154 53.2093596,17.6846154 C52.92857,17.6846154 52.5729086,18.0230735 52.1423645,18.7 C51.7118205,19.3769265 51.2953222,20.2418751 50.8928571,21.2948718 C50.4903921,22.3478685 50.1674889,23.3820462 49.9241379,24.3974359 C49.7182256,25.281201 49.479558,25.8782036 49.2081281,26.1884615 C48.9366982,26.4987195 48.5108403,26.6538462 47.9305419,26.6538462 C47.2192083,26.6538462 46.7184744,26.2777815 46.4283251,25.525641 C46.3883621,25.4220468 46.3511513,25.3098919 46.3166926,25.1891764 C46.0955365,25.3686096 45.8706786,25.5371746 45.6421182,25.6948718 C44.7155126,26.3341912 43.6625675,26.6538462 42.4832512,26.6538462 C41.491128,26.6538462 40.68621,26.2965848 40.0684729,25.5820513 C39.0014725,26.2777813 37.8876905,26.6350426 36.7270936,26.6538462 C36.4837426,30.2829241 35.9315314,33.3149451 35.0704433,35.75 C34.2093553,38.1850549 32.9458211,39.4025641 31.279803,39.4025641 C30.2689605,39.4025641 29.5201995,39.0359011 29.0334975,38.3025641 C28.5467956,37.5692271 28.3034483,36.5538526 28.3034483,35.2564103 C28.3034483,33.413666 28.7246263,31.2653969 29.5669951,28.8115385 C29.8138424,28.0924611 30.1000709,27.3519924 30.4256817,26.5901304 C30.1384892,26.6326076 29.8429009,26.6538462 29.5389163,26.6538462 C28.6403896,26.6538462 27.980544,26.3059864 27.5593596,25.6102564 C27.1381752,24.9145264 26.9275862,23.9367584 26.9275862,22.6769231 C26.609358,23.9555619 26.1320229,24.9380308 25.4955665,25.624359 C24.8591101,26.3106872 24.1758657,26.6538462 23.4458128,26.6538462 C22.6034441,26.6538462 21.9155199,26.2636791 21.3820197,25.4833333 C20.8485195,24.7029876 20.5817734,23.7299204 20.5817734,22.5641026 C20.5817734,21.1538391 20.6753685,19.861117 20.8625616,18.6858974 C21.0497546,17.5106779 21.3586185,16.2649638 21.7891626,14.9487179 C21.9763556,14.3846126 22.238422,13.9803431 22.5753695,13.7358974 C22.912317,13.4914518 23.4458092,13.3692308 24.1758621,13.3692308 C24.5876868,13.3692308 24.8731519,13.4350421 25.032266,13.5666667 C25.1913801,13.6982913 25.270936,13.8957252 25.270936,14.1589744 C25.270936,14.3094025 25.1679813,14.8170897 24.962069,15.6820513 C24.7748759,16.3777813 24.6251237,17.0076895 24.5128079,17.5717949 C24.1384218,19.5461637 23.9512315,20.8623899 23.9512315,21.5205128 C23.9512315,21.9153866 23.9980291,22.1927342 24.0916256,22.3525641 C24.1852221,22.512394 24.3349743,22.5923077 24.5408867,22.5923077 C24.8216763,22.5923077 25.172658,22.3102592 25.5938424,21.7461538 C26.0150267,21.1820485 26.4642833,20.3265015 26.9416256,19.1794872 C27.4189679,18.0324729 27.8822638,16.6222306 28.3315271,14.9487179 C28.4812815,14.3846126 28.7105896,13.9803431 29.0194581,13.7358974 C29.3283267,13.4914518 29.7916225,13.3692308 30.4093596,13.3692308 C30.8399036,13.3692308 31.139408,13.4209397 31.3078818,13.524359 C31.4763555,13.6277783 31.5605911,13.8205114 31.5605911,14.1025641 C31.5605911,14.5726519 31.3266033,15.8606732 30.8586207,17.9666667 C30.3344801,20.3735163 30.0724138,21.8589715 30.0724138,22.4230769 C30.0724138,22.7803437 30.1472899,23.0576913 30.2970443,23.2551282 C30.4467988,23.4525651 30.6433485,23.5512821 30.8866995,23.5512821 C31.2610856,23.5512821 31.7056625,23.3209425 32.2204433,22.8602564 C32.2340393,22.8480892 32.2477561,22.8357219 32.2615936,22.8231546 C32.6369652,22.131185 33.0397507,21.4243219 33.4699507,20.7025641 C33.4699507,17.9572512 33.4512317,16.0487233 33.4137931,14.9769231 C33.3950738,14.4316212 33.6103426,13.9991469 34.0596059,13.6794872 C34.5088692,13.3598275 35.07044,13.2 35.744335,13.2 C36.1374404,13.2 36.4229055,13.2799137 36.6007389,13.4397436 C36.7785723,13.5995734 36.8768472,13.9145276 36.8955665,14.3846154 C36.8955665,14.8547032 36.904926,15.202563 36.9236453,15.4282051 C37.5226631,14.6760646 38.1123124,14.1354717 38.6926108,13.8064103 C39.2729093,13.4773488 39.8906371,13.3128205 40.5458128,13.3128205 C41.5940939,13.3128205 42.4504893,13.7358932 43.1150246,14.5820513 C43.77956,15.4282094 44.1118227,16.5376 44.1118227,17.9102564 C44.1118227,18.9068426 43.952711,19.875209 43.6344828,20.8153846 C43.3162546,21.7555603 42.8763575,22.6111073 42.3147783,23.3820513 C42.7078837,23.4948724 43.0354667,23.5512821 43.2975369,23.5512821 C43.915274,23.5512821 44.5049233,23.3256433 45.0665025,22.874359 C45.3381829,22.6560369 45.6471003,22.3673044 45.993257,22.0081587 C45.9931546,21.9773933 45.9931034,21.9464686 45.9931034,21.9153846 C45.9931034,19.4709279 46.3394054,17.1487289 47.0320197,14.9487179 C47.2004935,14.4034161 47.4765991,14.0038474 47.8603448,13.75 C48.2440906,13.4961526 48.7822625,13.3692308 49.4748768,13.3692308 C49.849263,13.3692308 50.1113293,13.4162388 50.2610837,13.5102564 C50.4108382,13.604274 50.4857143,13.7829047 50.4857143,14.0461538 C50.4857143,14.3470101 50.3453216,15.0239264 50.064532,16.0769231 C49.877339,16.8290636 49.7275868,17.4824759 49.6152709,18.0371795 C49.5029551,18.5918831 49.40936,19.2829018 49.3344828,20.1102564 C49.839904,18.6435824 50.4435925,17.4025692 51.1455665,16.3871795 C51.8475405,15.3717898 52.5682229,14.6149598 53.3076355,14.1166667 C54.047048,13.6183736 54.7443317,13.3692308 55.3995074,13.3692308 C56.0546831,13.3692308 56.5179789,13.5196566 56.7894089,13.8205128 C57.0608388,14.121369 57.1965517,14.5820482 57.1965517,15.2025641 C57.1965517,15.8042765 57.018721,16.8948639 56.6630542,18.474359 C56.5132997,19.1512854 56.4103451,19.6589727 56.3541872,19.9974359 C57.2901525,17.6846038 58.3290583,16.0017147 59.470936,14.9487179 C60.6128136,13.8957212 61.679798,13.3692308 62.6719212,13.3692308 C63.888676,13.3692308 64.4970443,13.9803358 64.4970443,15.2025641 C64.4970443,15.9359011 64.2911351,17.2615289 63.8793103,19.1794872 C63.5236435,20.8153928 63.3458128,21.8965786 63.3458128,22.4230769 C63.3458128,23.1752174 63.6172387,23.5512821 64.1600985,23.5512821 C64.5344846,23.5512821 64.9790615,23.3209425 65.4938424,22.8602564 C65.7192351,22.6585487 65.9778203,22.4018708 66.2695999,22.090221 C66.2883728,20.8629964 66.3807715,19.7282309 66.546798,18.6858974 C66.7339911,17.5106779 67.042855,16.2649638 67.473399,14.9487179 C67.6605921,14.3846126 67.9226584,13.9803431 68.2596059,13.7358974 C68.5965534,13.4914518 69.1300456,13.3692308 69.8600985,13.3692308 C70.2719232,13.3692308 70.5573884,13.4350421 70.7165025,13.5666667 C70.8756166,13.6982913 70.9551724,13.8957252 70.9551724,14.1589744 C70.9551724,14.3094025 70.8522178,14.8170897 70.6463054,15.6820513 C70.4591124,16.3777813 70.3093602,17.0076895 70.1970443,17.5717949 C69.8226582,19.5461637 69.635468,20.8623899 69.635468,21.5205128 C69.635468,21.9153866 69.6822655,22.1927342 69.7758621,22.3525641 C69.8694586,22.512394 70.0192108,22.5923077 70.2251232,22.5923077 C70.5059127,22.5923077 70.8568944,22.3102592 71.2780788,21.7461538 C71.6992632,21.1820485 72.1485198,20.3265015 72.6258621,19.1794872 C73.1032044,18.0324729 73.5665002,16.6222306 74.0157635,14.9487179 C74.165518,14.3846126 74.394826,13.9803431 74.7036946,13.7358974 C75.0125631,13.4914518 75.475859,13.3692308 76.0935961,13.3692308 C76.5241401,13.3692308 76.8236445,13.4209397 76.9921182,13.524359 C77.160592,13.6277783 77.2448276,13.8205114 77.2448276,14.1025641 C77.2448276,14.5726519 77.0108398,15.8606732 76.5428571,17.9666667 C76.0187166,20.3735163 75.7566502,21.8589715 75.7566502,22.4230769 C75.7566502,22.7803437 75.8315263,23.0576913 75.9812808,23.2551282 C76.1310352,23.4525651 76.327585,23.5512821 76.570936,23.5512821 C76.9453221,23.5512821 77.3898989,23.3209425 77.9046798,22.8602564 C78.1435806,22.6464601 78.4197716,22.3709074 78.733255,22.0335961 C78.7330883,21.9944516 78.7330049,21.9550477 78.7330049,21.9153846 C78.7330049,19.4709279 79.0793069,17.1487289 79.7719212,14.9487179 C79.9403949,14.4034161 80.2165005,14.0038474 80.6002463,13.75 C80.9839921,13.4961526 81.522164,13.3692308 82.2147783,13.3692308 C82.5891644,13.3692308 82.8512308,13.4162388 83.0009852,13.5102564 C83.1507397,13.604274 83.2256158,13.7829047 83.2256158,14.0461538 C83.2256158,14.3470101 83.0852231,15.0239264 82.8044335,16.0769231 C82.6172404,16.8290636 82.4674882,17.4871767 82.3551724,18.0512821 C82.2428566,18.6153874 82.1492615,19.311107 82.0743842,20.1384615 C82.6921213,18.5213594 83.3847252,17.2051333 84.1522167,16.1897436 C84.9197083,15.1743539 85.673149,14.4504295 86.4125616,14.0179487 C87.1519741,13.5854679 87.8305388,13.3692308 88.4482759,13.3692308 C89.6650307,13.3692308 90.273399,13.9803358 90.273399,15.2025641 C90.273399,15.9359011 90.0674897,17.2615289 89.655665,19.1794872 C89.2999982,20.8153928 89.1221675,21.8965786 89.1221675,22.4230769 C89.1221675,23.1752174 89.3935933,23.5512821 89.9364532,23.5512821 C90.3108393,23.5512821 90.7554161,23.3209425 91.270197,22.8602564 C91.411401,22.7338906 91.5656323,22.5859503 91.7328913,22.416435 C91.6396993,21.9602496 91.5931034,21.4735751 91.5931034,20.9564103 C91.5931034,19.4333257 91.8926078,18.0982963 92.4916256,16.9512821 C93.0906434,15.8042678 93.8674829,14.9205159 94.8221675,14.3 C95.7768521,13.6794841 96.7783199,13.3692308 97.826601,13.3692308 C98.8561628,13.3692308 99.6564011,13.6747833 100.22734,14.2858974 C100.798279,14.8970116 101.083744,15.6820465 101.083744,16.6410256 C101.083744,17.4307732 100.910593,18.0982879 100.564286,18.6435897 C100.217979,19.1888916 99.7640422,19.4615385 99.2024631,19.4615385 C98.8467963,19.4615385 98.5613311,19.3769239 98.3460591,19.2076923 C98.1307871,19.0384607 98.0231527,18.8034203 98.0231527,18.5025641 C98.0231527,18.3709395 98.0418717,18.2205137 98.0793103,18.0512821 C98.116749,17.8820504 98.1448275,17.7598294 98.1635468,17.6846154 C98.2571433,17.4025627 98.3039409,17.1393175 98.3039409,16.8948718 C98.3039409,16.6504261 98.2431041,16.4623938 98.1214286,16.3307692 C97.9997531,16.1991446 97.8266021,16.1333333 97.6019704,16.1333333 C97.1714264,16.1333333 96.7689674,16.3260664 96.3945813,16.7115385 C96.0201952,17.0970105 95.7206908,17.6188001 95.4960591,18.2769231 C95.2714274,18.935046 95.1591133,19.6589704 95.1591133,20.4487179 C95.1591133,22.6299254 96.104424,23.7205128 97.9950739,23.7205128 C98.7625654,23.7205128 99.5908823,23.4619684 100.480049,22.9448718 C101.00039,22.6422669 101.515918,22.2511237 102.026639,21.7714376 C102.015776,21.2845265 102.010345,20.7496034 102.010345,20.1666667 C102.010345,17.2709257 102.305169,14.2530072 102.894828,11.1128205 C103.484486,7.97263387 104.35492,5.33548076 105.506158,3.20128205 C106.657395,1.06708335 108.037923,0 109.647783,0 C110.508871,0 111.206155,0.371363808 111.739655,1.11410256 C112.273155,1.85684132 112.539901,2.8205069 112.539901,4.00512821 C112.539901,5.904283 111.98769,7.87392142 110.883251,9.91410256 C109.778812,11.9542837 107.981786,14.3375932 105.492118,17.0641026 C105.43596,18.0418852 105.407882,19.0478581 105.407882,20.0820513 C106.025619,18.4837527 106.713543,17.181629 107.471675,16.175641 C108.229807,15.1696531 108.978568,14.4504295 109.71798,14.0179487 C110.457393,13.5854679 111.135958,13.3692308 111.753695,13.3692308 C112.352712,13.3692308 112.806649,13.5243574 113.115517,13.8346154 C113.424386,14.1448733 113.578818,14.6008517 113.578818,15.2025641 C113.578818,15.6914554 113.475863,16.6128137 113.269951,17.9666667 C113.082758,19.1136809 112.933005,20.1995675 112.82069,21.224359 C112.708374,22.2491504 112.652217,23.3914467 112.652217,24.6512821 C112.652217,25.3658155 112.507144,25.8782036 112.216995,26.1884615 C111.926846,26.4987195 111.45419,26.6538462 110.799015,26.6538462 C110.181278,26.6538462 109.732021,26.4940187 109.451232,26.174359 C109.170442,25.8546993 109.030049,25.3752169 109.030049,24.7358974 C109.030049,23.9837569 109.161082,22.7427437 109.423153,21.0128205 C109.647784,19.5085395 109.760099,18.5495747 109.760099,18.1358974 C109.760099,17.8350412 109.657144,17.6846154 109.451232,17.6846154 C109.207881,17.6846154 108.861579,17.9995695 108.412315,18.6294872 C107.963052,19.2594049 107.513795,20.0914478 107.064532,21.125641 C106.615269,22.1598342 106.250248,23.2504216 105.969458,24.3974359 C105.763546,25.281201 105.524878,25.8782036 105.253448,26.1884615 C104.982018,26.4987195 104.556161,26.6538462 103.975862,26.6538462 C103.395564,26.6538462 102.969706,26.4423098 102.698276,26.0192308 C102.530453,25.7576451 102.396623,25.4080071 102.296784,24.970312 Z M17.8019704,9.95641026 C17.8019704,13.4726672 15.8832704,15.4752112 12.0458128,15.9641026 L12.9724138,10.4923077 C13.0098524,10.3042726 13.0285714,10.0598306 13.0285714,9.75897436 C13.0285714,9.25127951 12.8928585,8.87991571 12.6214286,8.64487179 C12.3499986,8.40982788 11.9054218,8.29230769 11.2876847,8.29230769 C10.7448249,8.29230769 10.2721695,8.42863112 9.86970443,8.70128205 C9.46723937,8.97393299 9.20985278,9.42991133 9.09753695,10.0692308 C8.64827362,12.5324909 8.30197166,14.4974286 8.05862069,15.9641026 C7.81526972,15.9452991 7.46896776,15.898291 7.01970443,15.8230769 C6.92610791,15.8042734 6.78571522,15.7948718 6.59852217,15.7948718 C6.18669745,15.7948718 5.86379427,15.9170928 5.62980296,16.1615385 C5.39581164,16.4059841 5.27881773,16.7350407 5.27881773,17.1487179 C5.27881773,17.5435917 5.36305334,17.8679474 5.53152709,18.1217949 C5.70000084,18.3756423 6.06502182,18.5495722 6.62660099,18.6435897 C6.53300446,18.6247862 6.85122788,18.6717943 7.58128079,18.7846154 L6.6546798,24.1153846 C6.41132883,25.412827 6.05566736,26.0615385 5.58768473,26.0615385 C5.25073723,26.0615385 4.89975552,25.8123957 4.53472906,25.3141026 C4.16970261,24.8158095 3.87019821,24.1153891 3.6362069,23.2128205 C3.40221558,22.3102519 3.28522167,21.2760742 3.28522167,20.1102564 C3.28522167,17.3273365 3.67364144,14.8500109 4.45049261,12.6782051 C5.22734379,10.5063994 6.33176624,8.80940782 7.7637931,7.58717949 C9.19581997,6.36495115 10.8758524,5.75384615 12.8039409,5.75384615 C14.5073977,5.75384615 15.7662521,6.14401319 16.5805419,6.92435897 C17.3948317,7.70470476 17.8019704,8.71537841 17.8019704,9.95641026 Z M38.7347291,22.8320513 C39.3056679,22.2397406 39.7596042,21.5064146 40.0965517,20.6320513 C40.4334992,19.7576879 40.6019704,18.8410304 40.6019704,17.8820513 C40.6019704,17.3179459 40.4896563,16.8901724 40.2650246,16.5987179 C40.040393,16.3072635 39.7408886,16.1615385 39.3665025,16.1615385 C38.6926075,16.1615385 37.8783299,16.8760612 36.9236453,18.3051282 C36.904926,19.1324828 36.8955665,20.3452912 36.8955665,21.9435897 C36.8955665,22.8085513 36.886207,23.476066 36.8674877,23.9461538 C37.5413827,23.7957257 38.1637902,23.4243619 38.7347291,22.8320513 Z M32.7679803,33.324359 C33.1049278,31.1149462 33.3201966,28.3649737 33.4137931,25.074359 C32.608863,26.9547103 31.9724161,28.7504188 31.5044335,30.4615385 C31.0364509,32.1726581 30.8024631,33.6111053 30.8024631,34.7769231 C30.8024631,35.3786355 30.8726594,35.8393146 31.0130542,36.1589744 C31.153449,36.4786341 31.3172404,36.6384615 31.5044335,36.6384615 C32.0098547,36.6384615 32.4310328,35.5337717 32.7679803,33.324359 Z M107.934975,4.24487179 C107.523151,5.21325271 107.125371,6.52007724 106.741626,8.16538462 C106.35788,9.81069199 106.044336,11.6016997 105.800985,13.5384615 C106.961582,12.1658051 107.920932,10.6709483 108.679064,9.05384615 C109.437196,7.43674405 109.816256,5.97009205 109.816256,4.65384615 C109.816256,4.05213374 109.75074,3.59145459 109.619704,3.27179487 C109.488669,2.95213515 109.301479,2.79230769 109.058128,2.79230769 C108.721181,2.79230769 108.3468,3.27649088 107.934975,4.24487179 Z"/>
  </g>
</svg>
