<?xml version="1.0" encoding="UTF-8"?>
<svg width="203px" height="78px" viewBox="0 0 203 78" version="1.1" xmlns="http://www.w3.org/2000/svg" xmlns:xlink="http://www.w3.org/1999/xlink">
    <!-- Generator: Sketch 44.1 (41455) - http://www.bohemiancoding.com/sketch -->
    <title>pupmunch-logo</title>
    <desc>Created with Sketch.</desc>
    <defs></defs>
    <g id="Page-1" stroke="none" stroke-width="1" fill="none" fill-rule="evenodd">
        <g id="prelaunch" transform="translate(-462.000000, -48.000000)">
            <g id="pupmunch-logo" transform="translate(462.000000, 48.000000)">
                <path d="M90.63,76.61 C91.65,76.61 92.28,75.86 92.34,74.9 C92.37,74.48 92.37,74.03 92.37,73.55 C92.37,73.34 92.4,72.92 92.4,72.68 C92.43,71.21 92.43,69.77 92.43,68.27 C92.43,66.2 92.4,63.74 92.34,61.67 L92.34,61.13 C92.34,60.17 92.34,59.18 92.28,58.28 C92.19,57.29 91.5,56.6 90.48,56.6 C89.76,56.6 89.22,56.96 88.92,57.62 L88.92,57.59 C87.93,59.66 86.91,61.73 85.89,63.8 L83.16,57.86 C82.83,57.2 82.14,56.63 81.33,56.63 C80.31,56.63 79.71,57.26 79.59,58.25 C79.53,58.91 79.5,59.75 79.5,60.44 C79.38,62 79.29,63.62 79.2,65.21 C79.2,65.57 79.14,65.96 79.14,66.32 L79.14,66.29 C78.99,69.14 78.84,71.99 78.84,74.81 C78.84,75.86 79.5,76.61 80.58,76.61 C81.63,76.61 82.23,75.92 82.32,74.93 C82.38,74.18 82.41,73.37 82.41,72.59 C82.41,72.02 82.41,71.48 82.44,70.91 C82.5,69.08 82.59,67.01 82.71,65.15 C83.52,66.98 83.46,66.74 84.3,68.57 L84.27,68.54 C84.48,69.17 85.05,69.77 85.86,69.77 C86.61,69.77 87.12,69.23 87.45,68.63 C87.93,67.61 88.44,66.56 88.95,65.54 C88.98,67.25 88.95,66.56 88.95,68.27 C88.95,69.38 88.92,70.46 88.89,71.54 C88.86,72.62 88.86,73.73 88.86,74.81 C88.86,75.86 89.58,76.61 90.63,76.61 Z M109.86,66.62 C109.86,68.45 109.53,70.37 108.87,72.08 C107.88,74.48 106.02,77.12 103.11,77.12 C100.92,77.12 99.57,75.2 98.85,73.52 C97.89,71.42 97.53,68.45 97.53,66.23 C97.53,63.23 98.28,59.09 100.92,57.11 C101.82,56.48 102.84,56.15 103.92,56.15 C107.28,56.15 108.9,60.29 109.47,62.87 C109.71,64.07 109.86,65.36 109.86,66.62 Z M106.38,66.62 C106.38,64.52 105.9,61.49 104.43,59.99 C104.31,59.84 104.07,59.63 103.92,59.63 C103.59,59.63 103.23,59.78 102.99,59.99 C101.31,61.16 101.04,64.1 101.04,66.05 C101.04,67.7 101.28,70.61 102.03,72.05 C102.21,72.44 102.75,73.61 103.11,73.61 C103.5,73.61 103.89,73.37 104.22,73.04 C105.84,71.57 106.38,68.75 106.38,66.62 Z M126.78,58.61 C126.78,57.59 126.06,56.9 125.01,56.9 C123.99,56.9 123.27,57.59 123.27,58.61 C123.27,61.4 123.24,64.22 123.21,67.01 C123.21,67.1 123.18,67.19 123.18,67.28 C121.44,63.5 120.54,61.58 118.83,57.92 C118.53,57.32 117.93,56.69 117.18,56.69 C116.07,56.69 115.5,57.68 115.5,58.61 C115.5,62.15 115.41,65.66 115.29,69.2 C115.29,69.68 115.26,70.13 115.23,70.61 C115.2,72.08 115.17,73.61 115.17,75.11 C115.17,76.1 115.83,76.85 116.88,76.85 C117.99,76.85 118.53,76.19 118.65,75.2 C118.68,75.05 118.68,74.75 118.68,74.54 L118.68,73.97 C118.68,73.22 118.74,71.99 118.74,71.27 L118.83,67.64 C118.83,67.19 118.83,66.71 118.86,66.29 C120.57,70.04 121.53,72.02 123.21,75.65 C123.48,76.25 124.05,76.88 124.83,76.88 C126,76.88 126.45,75.92 126.51,75.02 C126.54,74.66 126.54,73.67 126.54,73.31 L126.63,69.59 C126.72,65.93 126.78,62.3 126.78,58.61 Z M139.86,59.33 L140.28,59.33 C140.46,59.33 140.64,59.3 140.79,59.3 C141.06,59.3 141.42,59.3 141.69,59.27 C142.65,59.18 143.34,58.58 143.34,57.53 C143.34,56.45 142.59,55.79 141.54,55.79 C141.15,55.79 140.61,55.82 140.19,55.85 C139.98,55.85 139.77,55.88 139.56,55.88 C138.27,55.91 137.28,55.94 136.11,56.03 C135.99,56.03 135.87,56.06 135.72,56.06 L133.47,56.18 L133.5,56.18 C133.35,56.18 133.2,56.21 133.05,56.21 C132.75,56.21 132.51,56.21 132.27,56.24 C131.37,56.42 130.77,56.78 130.77,57.89 C130.77,58.91 131.58,59.72 132.6,59.72 C133.44,59.72 134.16,59.69 134.88,59.63 C134.91,62.48 134.94,64.64 134.94,67.49 C134.94,68.75 134.94,70.04 134.91,71.33 C134.88,72.59 134.85,73.88 134.85,75.17 C134.85,76.19 135.57,76.94 136.62,76.94 C137.67,76.94 138.3,76.22 138.39,75.26 C138.42,75.02 138.42,74.6 138.42,74.3 L138.42,72.77 C138.45,71 138.45,69.26 138.45,67.55 C138.45,64.82 138.42,62.12 138.39,59.39 L139.86,59.33 Z M156.84,77.03 C157.89,77.03 158.52,76.37 158.61,75.32 L158.61,74.48 C158.61,74.21 158.61,73.94 158.64,73.64 C158.67,72.32 158.7,70.97 158.76,69.65 C158.82,67.85 158.91,66.05 158.97,64.25 C159.06,62.12 159.15,59.99 159.21,57.86 C159.24,56.72 158.43,56 157.44,56 C156.36,56 155.82,56.66 155.7,57.65 C155.67,58.13 155.67,58.64 155.67,59.18 C155.67,59.45 155.64,59.69 155.64,59.96 L155.64,59.93 L155.46,63.95 C154.11,63.95 152.88,63.92 151.53,63.86 L151.89,57.86 C151.89,56.72 151.11,56 150.12,56 C149.04,56 148.5,56.66 148.38,57.62 C148.29,58.31 148.26,59.09 148.23,59.87 L147.99,64.4 C147.87,66.86 147.75,69.38 147.66,71.87 L147.66,72.98 C147.63,73.73 147.6,74.51 147.6,75.26 C147.6,76.31 148.26,77.03 149.34,77.03 C150.39,77.03 150.99,76.34 151.08,75.35 C151.14,74.75 151.14,74.03 151.14,73.37 C151.14,73.07 151.17,72.74 151.17,72.44 C151.23,70.7 151.26,69.05 151.35,67.34 C152.85,67.46 153.84,67.46 155.31,67.46 C155.19,70.07 155.13,72.68 155.13,75.26 C155.13,76.31 155.79,77.03 156.84,77.03 Z M169.65,77 C170.88,77 172.35,76.97 173.55,76.76 C174.48,76.61 175.08,76.04 175.08,75.05 C175.08,74.06 174.39,73.28 173.37,73.28 L173.13,73.28 C171.99,73.43 170.91,73.52 169.8,73.52 C169.26,73.52 168.72,73.49 168.18,73.46 C168.27,68.15 168.42,62.87 168.6,57.59 C168.57,56.54 167.79,55.76 166.86,55.76 C165.81,55.76 165.21,56.42 165.09,57.38 C165.03,58.07 165,58.88 164.97,59.63 C164.94,61.19 164.88,63.14 164.85,64.73 C164.79,66.86 164.76,69.47 164.73,71.6 C164.7,72.74 164.67,73.88 164.67,74.99 C164.67,76.13 165.33,76.67 166.35,76.76 C167.4,76.91 168.54,77 169.65,77 Z M185.49,67.82 C187.02,64.79 188.61,61.64 189.51,58.16 C189.54,58.01 189.6,57.83 189.6,57.65 C189.6,56.69 188.7,55.94 187.8,55.94 C186.93,55.94 186.42,56.45 186.15,57.26 L185.76,58.52 C185.64,58.91 185.46,59.33 185.37,59.72 L185.37,59.66 C184.86,61.07 184.29,62.3 183.66,63.62 C183,62.42 182.34,61.04 181.92,59.69 C181.71,59.09 181.62,58.55 181.47,58.04 L181.32,57.5 C181.08,56.63 180.57,56.06 179.61,56.06 C178.65,56.06 177.84,56.75 177.84,57.77 C177.84,57.86 177.84,58.01 177.9,58.16 L177.87,58.1 C178.65,61.82 180.09,64.55 182.01,67.64 L181.95,75.02 C181.95,76.01 182.67,76.76 183.72,76.76 C184.74,76.76 185.43,76.07 185.43,75.05 L185.49,67.82 Z" id="MONTHLY" fill="#3C4858"></path>
                <path d="M36.95,25 C35.483326,27.3666785 33.350014,29.2999925 30.55,30.8 C27.749986,32.3000075 24.416686,33.183332 20.55,33.45 L18.4,45.5 C17.5666625,50.1333565 15.3000185,52.45 11.6,52.45 C9.5666565,52.45 7.69167525,51.850006 5.975,50.65 C4.25832475,49.449994 2.8833385,47.616679 1.85,45.15 C0.8166615,42.683321 0.3,39.650018 0.3,36.05 C0.3,29.2832995 1.39165575,23.5416903 3.575,18.825 C5.75834425,14.1083098 8.69164825,10.5750118 12.375,8.225 C16.0583517,5.87498825 20.1166445,4.7 24.55,4.7 C27.683349,4.7 30.3416557,5.2499945 32.525,6.35 C34.7083442,7.4500055 36.3583277,8.94165725 37.475,10.825 C38.5916722,12.7083428 39.15,14.8333215 39.15,17.2 C39.15,20.0333475 38.416674,22.6333215 36.95,25 Z M182.160063,44.2655531 C181.410764,44.8008579 180.615744,45.2706727 179.775,45.675 C177.591656,46.7250053 175.483343,47.25 173.45,47.25 C170.183317,47.25 167.641676,46.3250093 165.825,44.475 C165.666648,44.313742 165.515197,44.1479889 165.370647,43.9777405 C164.724041,44.5562159 164.058826,45.0803013 163.375,45.55 C161.724992,46.683339 159.85001,47.25 157.75,47.25 C156.049991,47.25 154.766671,46.7583383 153.9,45.775 C153.033329,44.7916618 152.6,43.366676 152.6,41.5 C152.6,40.566662 152.833331,38.900012 153.3,36.5 C153.733335,34.3999895 153.95,32.950004 153.95,32.15 C153.95,31.616664 153.766668,31.35 153.4,31.35 C152.966664,31.35 152.358337,31.9083278 151.575,33.025 C150.791663,34.1416723 149.991671,35.6166575 149.175,37.45 C148.358329,39.2833425 147.700002,41.2166565 147.2,43.25 C146.833331,44.8166745 146.408336,45.8749973 145.925,46.425 C145.441664,46.9750028 144.683338,47.25 143.65,47.25 C142.383327,47.25 141.491669,46.58334 140.975,45.25 C140.903838,45.0663557 140.837576,44.8675357 140.776216,44.6535399 C140.382403,44.9716261 139.981998,45.270446 139.575,45.55 C137.924992,46.683339 136.05001,47.25 133.95,47.25 C132.349992,47.25 131.175004,46.6333395 130.425,45.4 C129.674996,44.1666605 129.3,42.4333445 129.3,40.2 C128.73333,42.466678 127.883339,44.2083273 126.75,45.425 C125.616661,46.6416728 124.400006,47.25 123.1,47.25 C121.599992,47.25 120.375005,46.5583403 119.425,45.175 C119.257926,44.9317166 119.105543,44.6778666 118.967852,44.4134495 C118.4805,44.8223012 117.982883,45.2011509 117.475,45.55 C115.824992,46.683339 113.95001,47.25 111.85,47.25 C110.149991,47.25 108.866671,46.7583383 108,45.775 C107.133329,44.7916618 106.7,43.366676 106.7,41.5 C106.7,40.566662 106.933331,38.900012 107.4,36.5 C107.833335,34.3999895 108.05,32.950004 108.05,32.15 C108.05,31.616664 107.866668,31.35 107.5,31.35 C107.066664,31.35 106.450004,31.9083278 105.65,33.025 C104.849996,34.1416723 104.050004,35.6166575 103.25,37.45 C102.449996,39.2833425 101.800002,41.2166565 101.3,43.25 C100.933331,44.850008 100.508336,45.916664 100.025,46.45 C99.5416642,46.983336 98.766672,47.25 97.7,47.25 C96.5999945,47.25 95.7750027,46.7250053 95.225,45.675 C94.6749972,44.6249948 94.4,43.3500075 94.4,41.85 C94.4,40.583327 94.566665,38.750012 94.9,36.35 C95.166668,34.216656 95.3,32.81667 95.3,32.15 C95.3,31.616664 95.1166685,31.35 94.75,31.35 C94.2499975,31.35 93.6166705,31.949994 92.85,33.15 C92.0833295,34.350006 91.3416702,35.883324 90.625,37.75 C89.9083297,39.616676 89.3333355,41.449991 88.9,43.25 C88.5333315,44.8166745 88.1083357,45.8749973 87.625,46.425 C87.1416642,46.9750028 86.3833385,47.25 85.35,47.25 C84.083327,47.25 83.1916692,46.58334 82.675,45.25 C82.6038378,45.0663557 82.5375764,44.8675357 82.4762157,44.6535399 C82.0824028,44.9716261 81.6819978,45.270446 81.275,45.55 C79.6249917,46.683339 77.7500105,47.25 75.65,47.25 C73.8833245,47.25 72.4500055,46.616673 71.35,45.35 C69.4499905,46.5833395 67.466677,47.2166665 65.4,47.25 C64.9666645,53.6833655 63.983341,59.0583118 62.45,63.375 C60.916659,67.6916883 58.6666815,69.85 55.7,69.85 C53.899991,69.85 52.566671,69.2000065 51.7,67.9 C50.833329,66.5999935 50.4,64.8000115 50.4,62.5 C50.4,59.233317 51.1499925,55.4250218 52.65,51.075 C53.0895614,49.8002719 53.5992491,48.4876229 54.1790648,47.1370494 C53.6676606,47.2123499 53.141306,47.25 52.6,47.25 C50.999992,47.25 49.8250037,46.6333395 49.075,45.4 C48.3249962,44.1666605 47.95,42.4333445 47.95,40.2 C47.3833305,42.466678 46.533339,44.2083273 45.4,45.425 C44.266661,46.6416728 43.0500065,47.25 41.75,47.25 C40.2499925,47.25 39.0250047,46.5583403 38.075,45.175 C37.1249952,43.7916598 36.65,42.066677 36.65,40 C36.65,37.4999875 36.816665,35.2083438 37.15,33.125 C37.483335,31.0416563 38.0333295,28.833345 38.8,26.5 C39.133335,25.499995 39.599997,24.7833355 40.2,24.35 C40.800003,23.9166645 41.7499935,23.7 43.05,23.7 C43.783337,23.7 44.2916652,23.8166655 44.575,24.05 C44.8583347,24.2833345 45,24.633331 45,25.1 C45,25.366668 44.8166685,26.266659 44.45,27.8 C44.116665,29.0333395 43.850001,30.149995 43.65,31.15 C42.98333,34.6500175 42.65,36.9833275 42.65,38.15 C42.65,38.8500035 42.7333325,39.3416653 42.9,39.625 C43.0666675,39.9083348 43.3333315,40.05 43.7,40.05 C44.2000025,40.05 44.8249962,39.550005 45.575,38.55 C46.3250037,37.549995 47.1249957,36.0333435 47.975,34 C48.8250042,31.9666565 49.649996,29.4666815 50.45,26.5 C50.716668,25.499995 51.1249972,24.7833355 51.675,24.35 C52.2250027,23.9166645 53.0499945,23.7 54.15,23.7 C54.9166705,23.7 55.4499985,23.7916658 55.75,23.975 C56.0500015,24.1583343 56.2,24.4999975 56.2,25 C56.2,25.8333375 55.7833375,28.116648 54.95,31.85 C54.016662,36.116688 53.55,38.749995 53.55,39.75 C53.55,40.3833365 53.683332,40.8749983 53.95,41.225 C54.216668,41.5750018 54.5666645,41.75 55,41.75 C55.66667,41.75 56.4583287,41.3416708 57.375,40.525 C57.3992104,40.5034308 57.4236358,40.481507 57.4482763,40.4592286 C58.1167012,39.2325552 58.8339421,37.9794797 59.6,36.7 C59.6,31.833309 59.566667,28.4500095 59.5,26.55 C59.4666665,25.5833285 59.849996,24.8166695 60.65,24.25 C61.450004,23.6833305 62.449994,23.4 63.65,23.4 C64.3500035,23.4 64.8583317,23.5416653 65.175,23.825 C65.4916682,24.1083348 65.6666665,24.6666625 65.7,25.5 C65.7,26.3333375 65.7166665,26.949998 65.75,27.35 C66.816672,26.01666 67.8666615,25.0583363 68.9,24.475 C69.9333385,23.8916638 71.0333275,23.6 72.2,23.6 C74.066676,23.6 75.5916607,24.3499925 76.775,25.85 C77.9583392,27.3500075 78.55,29.3166545 78.55,31.75 C78.55,33.5166755 78.2666695,35.233325 77.7,36.9 C77.1333305,38.566675 76.350005,40.0833265 75.35,41.45 C76.0500035,41.650001 76.633331,41.75 77.1,41.75 C78.2000055,41.75 79.249995,41.350004 80.25,40.55 C80.7337818,40.1629745 81.2838715,39.6511304 81.9002735,39.0144632 C81.9000912,38.9599245 81.9,38.9051034 81.9,38.85 C81.9,34.516645 82.5166605,30.4000195 83.75,26.5 C84.0500015,25.5333285 84.5416632,24.8250023 85.225,24.375 C85.9083367,23.9249978 86.8666605,23.7 88.1,23.7 C88.76667,23.7 89.233332,23.7833325 89.5,23.95 C89.766668,24.1166675 89.9,24.433331 89.9,24.9 C89.9,25.433336 89.6500025,26.633324 89.15,28.5 C88.816665,29.83334 88.550001,30.9916618 88.35,31.975 C88.149999,32.9583383 87.983334,34.183326 87.85,35.65 C88.7500045,33.049987 89.8249937,30.850009 91.075,29.05 C92.3250062,27.249991 93.6083267,25.9083378 94.925,25.025 C96.2416732,24.1416623 97.4833275,23.7 98.65,23.7 C99.8166725,23.7 100.641664,23.966664 101.125,24.5 C101.608336,25.033336 101.85,25.8499945 101.85,26.95 C101.85,28.016672 101.533336,29.949986 100.9,32.75 C100.633332,33.950006 100.45,34.849997 100.35,35.45 C102.016675,31.3499795 103.866656,28.366676 105.9,26.5 C107.933343,24.633324 109.833324,23.7 111.6,23.7 C113.766677,23.7 114.85,24.7833225 114.85,26.95 C114.85,28.2500065 114.483337,30.599983 113.75,34 C113.116663,36.9000145 112.8,38.816662 112.8,39.75 C112.8,41.08334 113.283328,41.75 114.25,41.75 C114.91667,41.75 115.708329,41.3416708 116.625,40.525 C117.026357,40.1674272 117.48682,39.7124074 118.006393,39.1599372 C118.039822,36.9844026 118.204356,34.9727729 118.5,33.125 C118.833335,31.0416563 119.383329,28.833345 120.15,26.5 C120.483335,25.499995 120.949997,24.7833355 121.55,24.35 C122.150003,23.9166645 123.099993,23.7 124.4,23.7 C125.133337,23.7 125.641665,23.8166655 125.925,24.05 C126.208335,24.2833345 126.35,24.633331 126.35,25.1 C126.35,25.366668 126.166668,26.266659 125.8,27.8 C125.466665,29.0333395 125.200001,30.149995 125,31.15 C124.33333,34.6500175 124,36.9833275 124,38.15 C124,38.8500035 124.083332,39.3416653 124.25,39.625 C124.416667,39.9083348 124.683331,40.05 125.05,40.05 C125.550002,40.05 126.174996,39.550005 126.925,38.55 C127.675004,37.549995 128.474996,36.0333435 129.325,34 C130.175004,31.9666565 130.999996,29.4666815 131.8,26.5 C132.066668,25.499995 132.474997,24.7833355 133.025,24.35 C133.575003,23.9166645 134.399994,23.7 135.5,23.7 C136.26667,23.7 136.799998,23.7916658 137.1,23.975 C137.400001,24.1583343 137.55,24.4999975 137.55,25 C137.55,25.8333375 137.133337,28.116648 136.3,31.85 C135.366662,36.116688 134.9,38.749995 134.9,39.75 C134.9,40.3833365 135.033332,40.8749983 135.3,41.225 C135.566668,41.5750018 135.916664,41.75 136.35,41.75 C137.01667,41.75 137.808329,41.3416708 138.725,40.525 C139.150411,40.1459975 139.642225,39.6575177 140.200445,39.0595567 C140.200148,38.9901641 140.2,38.9203119 140.2,38.85 C140.2,34.516645 140.81666,30.4000195 142.05,26.5 C142.350001,25.5333285 142.841663,24.8250023 143.525,24.375 C144.208337,23.9249978 145.16666,23.7 146.4,23.7 C147.06667,23.7 147.533332,23.7833325 147.8,23.95 C148.066668,24.1166675 148.2,24.433331 148.2,24.9 C148.2,25.433336 147.950002,26.633324 147.45,28.5 C147.116665,29.83334 146.850001,30.999995 146.65,32 C146.449999,33.000005 146.283334,34.233326 146.15,35.7 C147.250005,32.833319 148.483326,30.500009 149.85,28.7 C151.216673,26.899991 152.558327,25.6166705 153.875,24.85 C155.191673,24.0833295 156.399994,23.7 157.5,23.7 C159.666677,23.7 160.75,24.7833225 160.75,26.95 C160.75,28.2500065 160.383337,30.599983 159.65,34 C159.016663,36.9000145 158.7,38.816662 158.7,39.75 C158.7,41.08334 159.183328,41.75 160.15,41.75 C160.81667,41.75 161.608329,41.3416708 162.525,40.525 C162.776442,40.3009879 163.051082,40.0387301 163.34892,39.7382257 C163.182973,38.9295334 163.1,38.0667922 163.1,37.15 C163.1,34.4499865 163.633328,32.0833435 164.7,30.05 C165.766672,28.0166565 167.149991,26.4500055 168.85,25.35 C170.550008,24.2499945 172.333324,23.7 174.2,23.7 C176.033342,23.7 177.458328,24.2416613 178.475,25.325 C179.491672,26.4083388 180,27.7999915 180,29.5 C180,30.900007 179.69167,32.0833285 179.075,33.05 C178.45833,34.0166715 177.650005,34.5 176.65,34.5 C176.016663,34.5 175.508335,34.3500015 175.125,34.05 C174.741665,33.7499985 174.55,33.333336 174.55,32.8 C174.55,32.5666655 174.583333,32.3000015 174.65,32 C174.716667,31.6999985 174.766666,31.483334 174.8,31.35 C174.966667,30.8499975 175.05,30.3833355 175.05,29.95 C175.05,29.5166645 174.941668,29.1833345 174.725,28.95 C174.508332,28.7166655 174.200002,28.6 173.8,28.6 C173.033329,28.6 172.31667,28.9416633 171.65,29.625 C170.98333,30.3083368 170.450002,31.2333275 170.05,32.4 C169.649998,33.5666725 169.45,34.849993 169.45,36.25 C169.45,40.116686 171.133316,42.05 174.5,42.05 C175.866673,42.05 177.341659,41.5916713 178.925,40.675 C179.851571,40.138564 180.769573,39.4451738 181.679015,38.5948213 C181.659672,37.7316607 181.65,36.7833878 181.65,35.75 C181.65,30.616641 182.174995,25.2666945 183.225,19.7 C184.275005,14.1333055 185.82499,9.45835225 187.875,5.675 C189.92501,1.89164775 192.383319,0 195.25,0 C196.783341,0 198.024995,0.65832675 198.975,1.975 C199.925005,3.29167325 200.4,4.9999895 200.4,7.1 C200.4,10.4666835 199.416676,13.9583153 197.45,17.575 C195.483323,21.1916848 192.283355,25.4166425 187.85,30.25 C187.749999,31.983342 187.7,33.7666575 187.7,35.6 C188.800005,32.7666525 190.024993,30.4583422 191.375,28.675 C192.725007,26.8916578 194.058327,25.6166705 195.375,24.85 C196.691673,24.0833295 197.899994,23.7 199,23.7 C200.066672,23.7 200.874997,23.9749973 201.425,24.525 C201.975003,25.0750028 202.25,25.883328 202.25,26.95 C202.25,27.816671 202.066668,29.449988 201.7,31.85 C201.366665,33.8833435 201.100001,35.8083242 200.9,37.625 C200.699999,39.4416758 200.6,41.4666555 200.6,43.7 C200.6,44.966673 200.341669,45.8749973 199.825,46.425 C199.308331,46.9750027 198.466672,47.25 197.3,47.25 C196.199994,47.25 195.400002,46.9666695 194.9,46.4 C194.399997,45.8333305 194.15,44.983339 194.15,43.85 C194.15,42.51666 194.383331,40.316682 194.85,37.25 C195.250002,34.58332 195.45,32.883337 195.45,32.15 C195.45,31.616664 195.266668,31.35 194.9,31.35 C194.466664,31.35 193.850004,31.9083278 193.05,33.025 C192.249996,34.1416722 191.450004,35.6166575 190.65,37.45 C189.849996,39.2833425 189.200002,41.2166565 188.7,43.25 C188.333331,44.8166745 187.908336,45.8749973 187.425,46.425 C186.941664,46.9750027 186.183338,47.25 185.15,47.25 C184.116661,47.25 183.358336,46.8750037 182.875,46.125 C182.576158,45.66128 182.337847,45.0414671 182.160063,44.2655531 Z M31.7,17.65 C31.7,23.8833645 28.2833675,27.433329 21.45,28.3 L23.1,18.6 C23.166667,18.266665 23.2,17.833336 23.2,17.3 C23.2,16.3999955 22.9583357,15.7416688 22.475,15.325 C21.9916642,14.9083313 21.2000055,14.7 20.1,14.7 C19.1333285,14.7 18.2916702,14.9416643 17.575,15.425 C16.8583297,15.9083358 16.400001,16.716661 16.2,17.85 C15.399996,22.2166885 14.7833355,25.699987 14.35,28.3 C13.9166645,28.2666665 13.300004,28.183334 12.5,28.05 C12.3333325,28.0166665 12.083335,28 11.75,28 C11.016663,28 10.4416687,28.2166645 10.025,28.65 C9.60833125,29.0833355 9.4,29.666663 9.4,30.4 C9.4,31.1000035 9.5499985,31.6749978 9.85,32.125 C10.1500015,32.5750023 10.799995,32.8833325 11.8,33.05 C11.6333325,33.0166665 12.1999935,33.099999 13.5,33.3 L11.85,42.75 C11.4166645,45.0500115 10.7833375,46.2 9.95,46.2 C9.349997,46.2 8.72500325,45.7583378 8.075,44.875 C7.42499675,43.9916623 6.89166875,42.750008 6.475,41.15 C6.05833125,39.549992 5.85,37.716677 5.85,35.65 C5.85,30.716642 6.54165975,26.3250193 7.925,22.475 C9.30834025,18.6249808 11.2749872,15.6166775 13.825,13.45 C16.3750127,11.2833225 19.3666495,10.2 22.8,10.2 C25.8333485,10.2 28.0749927,10.8916598 29.525,12.275 C30.9750072,13.6583403 31.7,15.449989 31.7,17.65 Z M68.975,40.475 C69.9916717,39.4249948 70.799997,38.1250078 71.4,36.575 C72.000003,35.0249923 72.3,33.4000085 72.3,31.7 C72.3,30.699995 72.100002,29.9416693 71.7,29.425 C71.299998,28.9083308 70.76667,28.65 70.1,28.65 C68.899994,28.65 67.4500085,29.916654 65.75,32.45 C65.7166665,33.916674 65.7,36.0666525 65.7,38.9 C65.7,40.433341 65.6833335,41.6166625 65.65,42.45 C66.850006,42.183332 67.9583282,41.5250053 68.975,40.475 Z M58.35,59.075 C58.950003,55.1583138 59.3333325,50.2833625 59.5,44.45 C58.0666595,47.78335 56.9333375,50.9666515 56.1,54 C55.2666625,57.0333485 54.85,59.583323 54.85,61.65 C54.85,62.716672 54.9749987,63.5333305 55.225,64.1 C55.4750012,64.6666695 55.766665,64.95 56.1,64.95 C57.0000045,64.95 57.749997,62.9916863 58.35,59.075 Z M192.2,7.525 C191.466663,9.24167525 190.758337,11.5583188 190.075,14.475 C189.391663,17.3916813 188.833335,20.5666495 188.4,24 C190.466677,21.5666545 192.174993,18.916681 193.525,16.05 C194.875007,13.183319 195.55,10.583345 195.55,8.25 C195.55,7.183328 195.433334,6.3666695 195.2,5.8 C194.966665,5.2333305 194.633335,4.95 194.2,4.95 C193.599997,4.95 192.933337,5.80832475 192.2,7.525 Z" id="Pupmunch" fill="#00A9FF"></path>
            </g>
        </g>
    </g>
</svg>