<svg xmlns="http://www.w3.org/2000/svg" width="122" height="47" viewBox="0 0 122 47">
  <g fill="#FFF" fill-rule="evenodd">
    <path d="M54.4672906,46.1624359 C55.0802956,46.1624359 55.4589163,45.7105128 55.4949754,45.1320513 C55.5130049,44.8789744 55.5130049,44.6078205 55.5130049,44.3185897 C55.5130049,44.1920513 55.5310345,43.9389744 55.5310345,43.794359 C55.549064,42.9085897 55.549064,42.0408974 55.549064,41.1370513 C55.549064,39.8897436 55.5310345,38.4074359 55.4949754,37.1601282 L55.4949754,36.8347436 C55.4949754,36.2562821 55.4949754,35.6597436 55.4589163,35.1174359 C55.4048276,34.5208974 54.9901478,34.1051282 54.3771429,34.1051282 C53.9444335,34.1051282 53.6199015,34.3220513 53.4396059,34.7197436 L53.4396059,34.7016667 C52.8446305,35.9489744 52.2316256,37.1962821 51.6186207,38.4435897 L49.977931,34.864359 C49.7796059,34.4666667 49.3649261,34.1232051 48.8781281,34.1232051 C48.2651232,34.1232051 47.904532,34.5028205 47.8324138,35.099359 C47.7963547,35.4970513 47.7783251,36.0032051 47.7783251,36.4189744 C47.7062069,37.3589744 47.6521182,38.3351282 47.5980296,39.2932051 C47.5980296,39.5101282 47.5619704,39.7451282 47.5619704,39.9620513 L47.5619704,39.9439744 C47.4718227,41.6612821 47.3816749,43.3785897 47.3816749,45.0778205 C47.3816749,45.7105128 47.7783251,46.1624359 48.4273892,46.1624359 C49.0584236,46.1624359 49.4190148,45.7466667 49.4731034,45.1501282 C49.5091626,44.6982051 49.5271921,44.2101282 49.5271921,43.7401282 C49.5271921,43.3966667 49.5271921,43.0712821 49.5452217,42.7278205 C49.5812808,41.6251282 49.6353695,40.3778205 49.7074877,39.2570513 C50.1942857,40.3597436 50.1582266,40.2151282 50.6630542,41.3178205 L50.6450246,41.2997436 C50.7712315,41.679359 51.1137931,42.0408974 51.6005911,42.0408974 C52.05133,42.0408974 52.3578325,41.7155128 52.5561576,41.3539744 C52.8446305,40.739359 53.151133,40.1066667 53.4576355,39.4920513 C53.475665,40.5224359 53.4576355,40.1066667 53.4576355,41.1370513 C53.4576355,41.8058974 53.4396059,42.4566667 53.4215764,43.1074359 C53.4035468,43.7582051 53.4035468,44.4270513 53.4035468,45.0778205 C53.4035468,45.7105128 53.8362562,46.1624359 54.4672906,46.1624359 Z M66.0242365,40.1428205 C66.0242365,41.2455128 65.8259113,42.4024359 65.4292611,43.4328205 C64.8342857,44.8789744 63.7164532,46.4697436 61.9675862,46.4697436 C60.6514286,46.4697436 59.8400985,45.3128205 59.4073892,44.3005128 C58.8304433,43.0351282 58.6140887,41.2455128 58.6140887,39.9078205 C58.6140887,38.1001282 59.0648276,35.6055128 60.6514286,34.4124359 C61.1923153,34.0328205 61.8053202,33.8339744 62.4543842,33.8339744 C64.4736946,33.8339744 65.4472906,36.3285897 65.7898522,37.8832051 C65.9340887,38.6062821 66.0242365,39.3835897 66.0242365,40.1428205 Z M63.9328079,40.1428205 C63.9328079,38.8774359 63.644335,37.0516667 62.7608867,36.1478205 C62.6887685,36.0574359 62.544532,35.9308974 62.4543842,35.9308974 C62.2560591,35.9308974 62.0397044,36.0212821 61.895468,36.1478205 C60.8858128,36.8528205 60.7235468,38.624359 60.7235468,39.799359 C60.7235468,40.7935897 60.8677833,42.5470513 61.3185222,43.4147436 C61.4266995,43.6497436 61.7512315,44.3547436 61.9675862,44.3547436 C62.2019704,44.3547436 62.4363547,44.2101282 62.6346798,44.0112821 C63.6082759,43.1255128 63.9328079,41.4262821 63.9328079,40.1428205 Z M76.1929064,35.3162821 C76.1929064,34.7016667 75.760197,34.2858974 75.1291626,34.2858974 C74.5161576,34.2858974 74.0834483,34.7016667 74.0834483,35.3162821 C74.0834483,36.9974359 74.0654187,38.6966667 74.0473892,40.3778205 C74.0473892,40.4320513 74.0293596,40.4862821 74.0293596,40.5405128 C72.9836453,38.2628205 72.4427586,37.1058974 71.4150739,34.9005128 C71.2347783,34.5389744 70.8741872,34.159359 70.4234483,34.159359 C69.7563547,34.159359 69.4137931,34.7558974 69.4137931,35.3162821 C69.4137931,37.449359 69.3597044,39.564359 69.2875862,41.6974359 C69.2875862,41.9866667 69.2695567,42.2578205 69.2515271,42.5470513 C69.2334975,43.4328205 69.215468,44.3547436 69.215468,45.2585897 C69.215468,45.8551282 69.6121182,46.3070513 70.2431527,46.3070513 C70.9102463,46.3070513 71.2347783,45.909359 71.3068966,45.3128205 C71.3249261,45.2224359 71.3249261,45.0416667 71.3249261,44.9151282 L71.3249261,44.5716667 C71.3249261,44.1197436 71.3609852,43.3785897 71.3609852,42.9447436 L71.4150739,40.7574359 C71.4150739,40.4862821 71.4150739,40.1970513 71.4331034,39.9439744 C72.4607882,42.2035897 73.037734,43.3966667 74.0473892,45.5839744 C74.2096552,45.9455128 74.5522167,46.3251282 75.0209852,46.3251282 C75.7241379,46.3251282 75.9945813,45.7466667 76.0306404,45.204359 C76.04867,44.9874359 76.04867,44.3908974 76.04867,44.1739744 L76.1027586,41.9324359 C76.1568473,39.7270513 76.1929064,37.5397436 76.1929064,35.3162821 Z M84.0537931,35.7501282 L84.3062069,35.7501282 C84.4143842,35.7501282 84.5225616,35.7320513 84.6127094,35.7320513 C84.7749754,35.7320513 84.99133,35.7320513 85.1535961,35.7139744 C85.7305419,35.6597436 86.1452217,35.2982051 86.1452217,34.6655128 C86.1452217,34.0147436 85.6944828,33.6170513 85.0634483,33.6170513 C84.829064,33.6170513 84.504532,33.6351282 84.2521182,33.6532051 C84.1259113,33.6532051 83.9997044,33.6712821 83.8734975,33.6712821 C83.0982266,33.689359 82.5032512,33.7074359 81.8000985,33.7616667 C81.7279803,33.7616667 81.6558621,33.7797436 81.5657143,33.7797436 L80.2134975,33.8520513 L80.2315271,33.8520513 C80.1413793,33.8520513 80.0512315,33.8701282 79.9610837,33.8701282 C79.7807882,33.8701282 79.6365517,33.8701282 79.4923153,33.8882051 C78.9514286,33.9966667 78.5908374,34.2135897 78.5908374,34.8824359 C78.5908374,35.4970513 79.0776355,35.9851282 79.6906404,35.9851282 C80.195468,35.9851282 80.6281773,35.9670513 81.0608867,35.9308974 C81.0789163,37.6482051 81.0969458,38.9497436 81.0969458,40.6670513 C81.0969458,41.4262821 81.0969458,42.2035897 81.0789163,42.9808974 C81.0608867,43.7401282 81.0428571,44.5174359 81.0428571,45.2947436 C81.0428571,45.909359 81.4755665,46.3612821 82.106601,46.3612821 C82.7376355,46.3612821 83.1162562,45.9274359 83.1703448,45.3489744 C83.1883744,45.204359 83.1883744,44.9512821 83.1883744,44.7705128 L83.1883744,43.8485897 C83.2064039,42.7820513 83.2064039,41.7335897 83.2064039,40.7032051 C83.2064039,39.0582051 83.1883744,37.4312821 83.1703448,35.7862821 L84.0537931,35.7501282 Z M94.2585222,46.4155128 C94.8895567,46.4155128 95.2681773,46.0178205 95.322266,45.3851282 L95.322266,44.8789744 C95.322266,44.7162821 95.322266,44.5535897 95.3402956,44.3728205 C95.3583251,43.5774359 95.3763547,42.7639744 95.4124138,41.9685897 C95.4484729,40.8839744 95.5025616,39.799359 95.5386207,38.7147436 C95.5927094,37.4312821 95.646798,36.1478205 95.6828571,34.864359 C95.7008867,34.1774359 95.2140887,33.7435897 94.6191133,33.7435897 C93.9700493,33.7435897 93.6455172,34.1412821 93.573399,34.7378205 C93.5553695,35.0270513 93.5553695,35.334359 93.5553695,35.6597436 C93.5553695,35.8224359 93.5373399,35.9670513 93.5373399,36.1297436 L93.5373399,36.1116667 L93.4291626,38.5339744 C92.6178325,38.5339744 91.8786207,38.5158974 91.0672906,38.4797436 L91.2836453,34.864359 C91.2836453,34.1774359 90.8148768,33.7435897 90.2199015,33.7435897 C89.5708374,33.7435897 89.2463054,34.1412821 89.1741872,34.7197436 C89.1200985,35.1355128 89.102069,35.6055128 89.0840394,36.0755128 L88.939803,38.8051282 C88.8676847,40.2874359 88.7955665,41.8058974 88.7414778,43.3062821 L88.7414778,43.9751282 C88.7234483,44.4270513 88.7054187,44.8970513 88.7054187,45.3489744 C88.7054187,45.9816667 89.102069,46.4155128 89.751133,46.4155128 C90.3821675,46.4155128 90.7427586,45.9997436 90.7968473,45.4032051 C90.8329064,45.0416667 90.8329064,44.6078205 90.8329064,44.2101282 C90.8329064,44.029359 90.850936,43.8305128 90.850936,43.6497436 C90.8869951,42.6012821 90.9050246,41.6070513 90.9591133,40.5766667 C91.8605911,40.6489744 92.4555665,40.6489744 93.3390148,40.6489744 C93.2668966,42.2216667 93.2308374,43.794359 93.2308374,45.3489744 C93.2308374,45.9816667 93.6274877,46.4155128 94.2585222,46.4155128 Z M101.957143,46.3974359 C102.696355,46.3974359 103.579803,46.379359 104.300985,46.2528205 C104.859901,46.1624359 105.220493,45.8189744 105.220493,45.2224359 C105.220493,44.6258974 104.805813,44.1558974 104.192808,44.1558974 L104.048571,44.1558974 C103.363448,44.2462821 102.714384,44.3005128 102.047291,44.3005128 C101.722759,44.3005128 101.398227,44.2824359 101.073695,44.264359 C101.127783,41.0647436 101.217931,37.8832051 101.326108,34.7016667 C101.308079,34.0689744 100.83931,33.5989744 100.280394,33.5989744 C99.6493596,33.5989744 99.2887685,33.9966667 99.2166502,34.5751282 C99.1805911,34.9908974 99.1625616,35.4789744 99.144532,35.9308974 C99.1265025,36.8708974 99.0904433,38.0458974 99.0724138,39.0039744 C99.0363547,40.2874359 99.0183251,41.8601282 99.0002956,43.1435897 C98.982266,43.8305128 98.9642365,44.5174359 98.9642365,45.1862821 C98.9642365,45.8732051 99.3608867,46.1985897 99.9738916,46.2528205 C100.604926,46.3432051 101.290049,46.3974359 101.957143,46.3974359 Z M111.476749,40.8658974 C112.396256,39.0401282 113.351823,37.1420513 113.892709,35.0451282 C113.910739,34.9547436 113.946798,34.8462821 113.946798,34.7378205 C113.946798,34.159359 113.405911,33.7074359 112.865025,33.7074359 C112.342167,33.7074359 112.035665,34.0147436 111.873399,34.5028205 L111.639015,35.2620513 C111.566897,35.4970513 111.458719,35.7501282 111.404631,35.9851282 L111.404631,35.9489744 C111.098128,36.7985897 110.755567,37.5397436 110.376946,38.3351282 C109.980296,37.6120513 109.583645,36.7805128 109.331232,35.9670513 C109.205025,35.6055128 109.150936,35.2801282 109.060788,34.9728205 L108.97064,34.6474359 C108.826404,34.1232051 108.519901,33.7797436 107.942956,33.7797436 C107.36601,33.7797436 106.879212,34.1955128 106.879212,34.8101282 C106.879212,34.864359 106.879212,34.9547436 106.915271,35.0451282 L106.897241,35.0089744 C107.36601,37.2505128 108.231429,38.8955128 109.38532,40.7574359 L109.349261,45.204359 C109.349261,45.8008974 109.78197,46.2528205 110.413005,46.2528205 C111.02601,46.2528205 111.44069,45.8370513 111.44069,45.2224359 L111.476749,40.8658974 Z"/>
    <path d="M22.2064039,15.0641026 C21.3249545,16.4901781 20.0428656,17.6551237 18.3600985,18.5589744 C16.6773315,19.462825 14.6740674,19.9950847 12.3502463,20.1557692 L11.0581281,27.4166667 C10.5573046,30.208561 9.19508501,31.6044872 6.97142857,31.6044872 C5.74941918,31.6044872 4.62258316,31.2429523 3.5908867,30.5198718 C2.55919024,29.7967913 1.73284383,28.6921014 1.11182266,27.2057692 C0.490801493,25.719437 0.180295567,23.8916775 0.180295567,21.7224359 C0.180295567,17.6450651 0.836364539,14.1853775 2.14852217,11.3432692 C3.4606798,8.501161 5.22355215,6.37212246 7.43719212,4.95608974 C9.65083209,3.54005702 12.0898061,2.83205128 14.7541872,2.83205128 C16.6372836,2.83205128 18.2348867,3.16345822 19.5470443,3.82628205 C20.859202,4.48910588 21.8508177,5.38792168 22.5219212,6.52275641 C23.1930247,7.65759114 23.5285714,8.93802706 23.5285714,10.3641026 C23.5285714,12.0713761 23.0878533,13.6380271 22.2064039,15.0641026 Z M109.475506,26.6728333 C109.025188,26.9953887 108.547393,27.2784822 108.042118,27.5221154 C106.729961,28.1548109 105.462896,28.4711538 104.240887,28.4711538 C102.277658,28.4711538 100.75017,27.9137876 99.6583744,26.7990385 C99.5632069,26.7018702 99.4721872,26.6019933 99.3853152,26.4994077 C98.9967141,26.8479762 98.5969299,27.1637713 98.1859606,27.4467949 C97.19433,28.1297043 96.067494,28.4711538 94.8054187,28.4711538 C93.7837387,28.4711538 93.0124821,28.1748961 92.4916256,27.5823718 C91.9707692,26.9898475 91.7103448,26.1312022 91.7103448,25.0064103 C91.7103448,24.4440143 91.8505733,23.4397508 92.1310345,21.9935897 C92.3914627,20.7281988 92.5216749,19.8544896 92.5216749,19.3724359 C92.5216749,19.0510668 92.4114954,18.8903846 92.191133,18.8903846 C91.9307048,18.8903846 91.5651091,19.2268129 91.094335,19.8996795 C90.6235609,20.5725461 90.1427775,21.4613193 89.6519704,22.5660256 C89.1611634,23.670732 88.7655187,24.8356776 88.4650246,26.0608974 C88.2446623,27.0049193 87.9892461,27.6426265 87.6987685,27.9740385 C87.4082908,28.3054504 86.9525483,28.4711538 86.3315271,28.4711538 C85.5702753,28.4711538 85.0344022,28.0694485 84.7238916,27.2660256 C84.6811242,27.1553682 84.6413021,27.0355664 84.6044252,26.9066202 C84.3677495,27.0982875 84.127112,27.2783456 83.8825123,27.4467949 C82.8908817,28.1297043 81.7640457,28.4711538 80.5019704,28.4711538 C79.5403893,28.4711538 78.8342387,28.0995764 78.3834975,27.3564103 C77.9327564,26.6132441 77.7073892,25.5688101 77.7073892,24.2230769 C77.3668292,25.5888957 76.8559968,26.638351 76.1748768,27.3714744 C75.4937569,28.1045977 74.7625655,28.4711538 73.9812808,28.4711538 C73.0797984,28.4711538 72.3435989,28.0543845 71.7726601,27.2208333 C71.672251,27.0742395 71.5806714,26.9212786 71.4979211,26.7619504 C71.2050297,27.0083097 70.9059693,27.2365909 70.6007389,27.4467949 C69.6091083,28.1297043 68.4822723,28.4711538 67.220197,28.4711538 C66.1985171,28.4711538 65.4272604,28.1748961 64.9064039,27.5823718 C64.3855475,26.9898475 64.1251232,26.1312022 64.1251232,25.0064103 C64.1251232,24.4440143 64.2653516,23.4397508 64.5458128,21.9935897 C64.806241,20.7281988 64.9364532,19.8544896 64.9364532,19.3724359 C64.9364532,19.0510668 64.8262737,18.8903846 64.6059113,18.8903846 C64.3454831,18.8903846 63.9748793,19.2268129 63.4940887,19.8996795 C63.0132981,20.5725461 62.5325147,21.4613193 62.0517241,22.5660256 C61.5709336,23.670732 61.1802971,24.8356776 60.879803,26.0608974 C60.6594406,27.0250048 60.4040244,27.6677334 60.1135468,27.9891026 C59.8230692,28.3104717 59.3573103,28.4711538 58.7162562,28.4711538 C58.0551691,28.4711538 57.5593613,28.1548109 57.2288177,27.5221154 C56.8982742,26.8894199 56.7330049,26.1211584 56.7330049,25.2173077 C56.7330049,24.454056 56.8331681,23.3493662 57.0334975,21.9032051 C57.1937611,20.6177286 57.2738916,19.7741473 57.2738916,19.3724359 C57.2738916,19.0510668 57.1637121,18.8903846 56.9433498,18.8903846 C56.6428556,18.8903846 56.2622355,19.2519195 55.8014778,19.975 C55.3407202,20.6980805 54.8949939,21.6220029 54.4642857,22.7467949 C54.0335775,23.8715868 53.6880144,24.9762766 53.4275862,26.0608974 C53.2072239,27.0049193 52.9518077,27.6426265 52.66133,27.9740385 C52.3708524,28.3054504 51.9151098,28.4711538 51.2940887,28.4711538 C50.5328369,28.4711538 49.9969638,28.0694485 49.6864532,27.2660256 C49.6436858,27.1553682 49.6038637,27.0355664 49.5669868,26.9066202 C49.330311,27.0982875 49.0896735,27.2783456 48.8450739,27.4467949 C47.8534433,28.1297043 46.7266073,28.4711538 45.464532,28.4711538 C44.4027862,28.4711538 43.5413826,28.0895337 42.8802956,27.3262821 C41.7384179,28.0694482 40.5464758,28.4510683 39.3044335,28.4711538 C39.0440053,32.347669 38.4530424,35.5864186 37.5315271,38.1875 C36.6100118,40.7885814 35.2578086,42.0891026 33.4748768,42.0891026 C32.393098,42.0891026 31.5917924,41.6974398 31.070936,40.9141026 C30.5500795,40.1307653 30.2896552,39.0461608 30.2896552,37.6602564 C30.2896552,35.6918705 30.7403896,33.3971285 31.6418719,30.7759615 C31.9060418,30.0078561 32.2123566,29.216901 32.5608173,28.4030939 C32.2534709,28.4484672 31.9371396,28.4711538 31.6118227,28.4711538 C30.6502415,28.4711538 29.9440909,28.0995764 29.4933498,27.3564103 C29.0426086,26.6132441 28.8172414,25.5688101 28.8172414,24.2230769 C28.4766814,25.5888957 27.9658491,26.638351 27.2847291,27.3714744 C26.6036091,28.1045977 25.8724177,28.4711538 25.091133,28.4711538 C24.1896507,28.4711538 23.4534511,28.0543845 22.8825123,27.2208333 C22.3115735,26.3872822 22.0261084,25.3478695 22.0261084,24.1025641 C22.0261084,22.5961463 22.1262716,21.2152841 22.326601,19.9599359 C22.5269304,18.7045877 22.857469,17.3739387 23.3182266,15.9679487 C23.518556,15.3653816 23.799013,14.9335483 24.1596059,14.6724359 C24.5201988,14.4113235 25.0911291,14.2807692 25.8724138,14.2807692 C26.3131385,14.2807692 26.6186363,14.3510677 26.7889163,14.4916667 C26.9591963,14.6322657 27.044335,14.843161 27.044335,15.124359 C27.044335,15.2850435 26.9341555,15.8273458 26.7137931,16.7512821 C26.5134637,17.4944482 26.3532026,18.1673047 26.2330049,18.7698718 C25.8323461,20.8788567 25.6320197,22.2848255 25.6320197,22.9878205 C25.6320197,23.4096175 25.6821013,23.7058752 25.782266,23.8766026 C25.8824307,24.0473299 26.0426918,24.1326923 26.2630542,24.1326923 C26.5635483,24.1326923 26.9391603,23.8314133 27.3899015,23.2288462 C27.8406426,22.626279 28.321426,21.7123993 28.832266,20.4871795 C29.343106,19.2619597 29.8389139,17.7555645 30.3197044,15.9679487 C30.479968,15.3653816 30.7253678,14.9335483 31.0559113,14.6724359 C31.3864549,14.4113235 31.8822627,14.2807692 32.5433498,14.2807692 C33.0041074,14.2807692 33.3246296,14.3360037 33.5049261,14.4464744 C33.6852226,14.556945 33.7753695,14.762819 33.7753695,15.0641026 C33.7753695,15.5662418 33.5249615,16.9420828 33.0241379,19.1916667 C32.4632156,21.7626197 32.1827586,23.349356 32.1827586,23.9519231 C32.1827586,24.3335489 32.2628892,24.6298066 32.4231527,24.8407051 C32.5834162,25.0516036 32.793759,25.1570513 33.0541872,25.1570513 C33.454846,25.1570513 33.9306212,24.9110067 34.4815271,24.4189103 C34.4960772,24.4059134 34.5107565,24.3927029 34.525565,24.3792788 C34.9272785,23.6401294 35.3583297,22.8850711 35.8187192,22.1141026 C35.8187192,19.1816093 35.7986866,17.1429544 35.7586207,15.9980769 C35.7385877,15.4155954 35.9689631,14.9536342 36.4497537,14.6121795 C36.9305443,14.2707248 37.5315235,14.1 38.2527094,14.1 C38.6734011,14.1 38.9788989,14.1853624 39.1692118,14.3560897 C39.3595248,14.5268171 39.4646961,14.8632454 39.4847291,15.3653846 C39.4847291,15.8675239 39.4947454,16.2391014 39.5147783,16.4801282 C40.1558324,15.6767054 40.7868606,15.0992539 41.4078818,14.7477564 C42.0289029,14.3962589 42.6899801,14.2205128 43.391133,14.2205128 C44.5129777,14.2205128 45.429471,14.6724314 46.1406404,15.5762821 C46.8518098,16.4801327 47.2073892,17.6651636 47.2073892,19.1314103 C47.2073892,20.1959455 47.0371117,21.2303369 46.6965517,22.2346154 C46.3559917,23.2388939 45.8852247,24.1527737 45.2842365,24.9762821 C45.7049282,25.0967955 46.0554994,25.1570513 46.3359606,25.1570513 C46.9970476,25.1570513 47.6280758,24.9160281 48.229064,24.4339744 C48.5198098,24.2007667 48.8504056,23.8923478 49.220854,23.508715 C49.2207444,23.4758519 49.2206897,23.4428187 49.2206897,23.4096154 C49.2206897,20.7984912 49.5912935,18.3179605 50.3325123,15.9679487 C50.5128088,15.3854672 50.8082902,14.9586552 51.2189655,14.6875 C51.6296408,14.4163448 52.2055792,14.2807692 52.946798,14.2807692 C53.3474568,14.2807692 53.6279138,14.3309824 53.7881773,14.4314103 C53.9484409,14.5318381 54.0285714,14.7226482 54.0285714,15.0038462 C54.0285714,15.3252153 53.8783266,16.048285 53.5778325,17.1730769 C53.3775031,17.9764997 53.217242,18.6744628 53.0970443,19.2669872 C52.9768467,19.8595115 52.8766835,20.5976452 52.7965517,21.4814103 C53.3374411,19.9147358 53.9834938,18.589108 54.7347291,17.5044872 C55.4859643,16.4198664 56.257221,15.6114343 57.0485222,15.0791667 C57.8398233,14.546899 58.5860392,14.2807692 59.2871921,14.2807692 C59.988345,14.2807692 60.4841529,14.4414514 60.7746305,14.7628205 C61.0651082,15.0841896 61.2103448,15.5762787 61.2103448,16.2391026 C61.2103448,16.8818408 61.0200347,18.0467864 60.6394089,19.7339744 C60.4791453,20.4570549 60.3689658,20.9993572 60.308867,21.3608974 C61.310514,18.8903723 62.4223256,17.0927407 63.644335,15.9679487 C64.8663444,14.8431568 66.0082049,14.2807692 67.0699507,14.2807692 C68.3720919,14.2807692 69.0231527,14.9335405 69.0231527,16.2391026 C69.0231527,17.0224398 68.8027937,18.4384513 68.362069,20.4871795 C67.9814431,22.2346241 67.791133,23.3895271 67.791133,23.9519231 C67.791133,24.7553459 68.0816063,25.1570513 68.6625616,25.1570513 C69.0632204,25.1570513 69.5389956,24.9110067 70.0899015,24.4189103 C70.3311112,24.2034497 70.6078428,23.9292711 70.9200981,23.5963724 C70.9401884,22.2854734 71.0390713,21.0733375 71.2167488,19.9599359 C71.4170782,18.7045877 71.7476167,17.3739387 72.2083744,15.9679487 C72.4087038,15.3653816 72.6891608,14.9335483 73.0497537,14.6724359 C73.4103466,14.4113235 73.9812769,14.2807692 74.7625616,14.2807692 C75.2032863,14.2807692 75.508784,14.3510677 75.679064,14.4916667 C75.849344,14.6322657 75.9344828,14.843161 75.9344828,15.124359 C75.9344828,15.2850435 75.8243032,15.8273458 75.6039409,16.7512821 C75.4036115,17.4944482 75.2433504,18.1673047 75.1231527,18.7698718 C74.7224939,20.8788567 74.5221675,22.2848255 74.5221675,22.9878205 C74.5221675,23.4096175 74.5722491,23.7058752 74.6724138,23.8766026 C74.7725785,24.0473299 74.9328396,24.1326923 75.153202,24.1326923 C75.4536961,24.1326923 75.8293081,23.8314133 76.2800493,23.2288462 C76.7307904,22.626279 77.2115738,21.7123993 77.7224138,20.4871795 C78.2332538,19.2619597 78.7290616,17.7555645 79.2098522,15.9679487 C79.3701157,15.3653816 79.6155156,14.9335483 79.9460591,14.6724359 C80.2766026,14.4113235 80.7724105,14.2807692 81.4334975,14.2807692 C81.8942552,14.2807692 82.2147774,14.3360037 82.3950739,14.4464744 C82.5753704,14.556945 82.6655172,14.762819 82.6655172,15.0641026 C82.6655172,15.5662418 82.4151092,16.9420828 81.9142857,19.1916667 C81.3533634,21.7626197 81.0729064,23.349356 81.0729064,23.9519231 C81.0729064,24.3335489 81.153037,24.6298066 81.3133005,24.8407051 C81.473564,25.0516036 81.6839067,25.1570513 81.944335,25.1570513 C82.3449938,25.1570513 82.820769,24.9110067 83.3716749,24.4189103 C83.6273406,24.1905369 83.9229135,23.8961966 84.2583957,23.5358867 C84.2582173,23.4940733 84.2581281,23.4519828 84.2581281,23.4096154 C84.2581281,20.7984912 84.6287319,18.3179605 85.3699507,15.9679487 C85.5502472,15.3854672 85.8457287,14.9586552 86.2564039,14.6875 C86.6670792,14.4163448 87.2430176,14.2807692 87.9842365,14.2807692 C88.3848953,14.2807692 88.6653522,14.3309824 88.8256158,14.4314103 C88.9858793,14.5318381 89.0660099,14.7226482 89.0660099,15.0038462 C89.0660099,15.3252153 88.915765,16.048285 88.6152709,17.1730769 C88.4149415,17.9764997 88.2546804,18.6794842 88.1344828,19.2820513 C88.0142851,19.8846184 87.9141219,20.6277734 87.8339901,21.5115385 C88.4950772,19.7841794 89.2362849,18.3782106 90.0576355,17.2935897 C90.878986,16.2089689 91.6852998,15.4356861 92.476601,14.9737179 C93.2679022,14.5117498 93.9940854,14.2807692 94.6551724,14.2807692 C95.9573136,14.2807692 96.6083744,14.9335405 96.6083744,16.2391026 C96.6083744,17.0224398 96.3880153,18.4384513 95.9472906,20.4871795 C95.5666648,22.2346241 95.3763547,23.3895271 95.3763547,23.9519231 C95.3763547,24.7553459 95.666828,25.1570513 96.2477833,25.1570513 C96.6484421,25.1570513 97.1242173,24.9110067 97.6751232,24.4189103 C97.8262362,24.2839286 97.9912907,24.1259014 98.1702872,23.9448283 C98.0705554,23.4575394 98.0206897,22.9376825 98.0206897,22.3852564 C98.0206897,20.7583252 98.3412119,19.3322711 98.982266,18.1070513 C99.6233201,16.8818315 100.454675,15.9378238 101.476355,15.275 C102.498035,14.6121762 103.569781,14.2807692 104.691626,14.2807692 C105.793437,14.2807692 106.649833,14.6071549 107.260837,15.2599359 C107.871842,15.9127169 108.17734,16.7512769 108.17734,17.775641 C108.17734,18.619235 107.992038,19.332262 107.621429,19.9147436 C107.250819,20.4972251 106.765028,20.7884615 106.164039,20.7884615 C105.783414,20.7884615 105.477916,20.6980778 105.247537,20.5173077 C105.017158,20.3365376 104.90197,20.0854717 104.90197,19.7641026 C104.90197,19.6235036 104.922003,19.4628214 104.962069,19.2820513 C105.002135,19.1012811 105.032184,18.9707269 105.052217,18.8903846 C105.152381,18.5891011 105.202463,18.3079073 105.202463,18.0467949 C105.202463,17.7856825 105.137357,17.5848298 105.007143,17.4442308 C104.876929,17.3036318 104.691627,17.2333333 104.451232,17.2333333 C103.990474,17.2333333 103.559772,17.4392073 103.159113,17.8509615 C102.758454,18.2627157 102.437932,18.820082 102.197537,19.5230769 C101.957142,20.2260719 101.836946,20.9993548 101.836946,21.8429487 C101.836946,24.1728749 102.848594,25.3378205 104.871921,25.3378205 C105.693272,25.3378205 106.579716,25.0616481 107.531281,24.5092949 C108.088136,24.1860578 108.639842,23.7682458 109.186403,23.2558538 C109.174778,22.7357443 109.168966,22.1643491 109.168966,21.5416667 C109.168966,18.4484888 109.48448,15.2248031 110.115517,11.8705128 C110.746555,8.51622254 111.678073,5.69926354 112.910099,3.41955128 C114.142124,1.13983903 115.619532,0 117.342365,0 C118.26388,0 119.010096,0.396684067 119.581034,1.1900641 C120.151973,1.98344414 120.437438,3.01281419 120.437438,4.27820513 C120.437438,6.30684775 119.846476,8.4107797 118.664532,10.5900641 C117.482589,12.7693485 115.559455,15.3151564 112.895074,18.2275641 C112.834975,19.2720138 112.804926,20.3465757 112.804926,21.4512821 C113.466013,19.7440086 114.202213,18.3531037 115.013547,17.2785256 C115.824881,16.2039476 116.626187,15.4356861 117.417488,14.9737179 C118.208789,14.5117498 118.934972,14.2807692 119.596059,14.2807692 C120.237113,14.2807692 120.722905,14.4464727 121.053448,14.7778846 C121.383992,15.1092965 121.549261,15.5963643 121.549261,16.2391026 C121.549261,16.7613274 121.439082,17.7455056 121.218719,19.1916667 C121.01839,20.4168865 120.858129,21.5768108 120.737931,22.6714744 C120.617733,23.766138 120.557635,24.9863181 120.557635,26.3320513 C120.557635,27.095303 120.402383,27.6426265 120.091872,27.9740385 C119.781361,28.3054504 119.275537,28.4711538 118.574384,28.4711538 C117.913297,28.4711538 117.432514,28.3004291 117.13202,27.9589744 C116.831526,27.6175197 116.681281,27.1053453 116.681281,26.4224359 C116.681281,25.6190131 116.821509,24.2933853 117.10197,22.4455128 C117.342366,20.8386672 117.462562,19.8143184 117.462562,19.3724359 C117.462562,19.0510668 117.352382,18.8903846 117.13202,18.8903846 C116.871591,18.8903846 116.500988,19.2268129 116.020197,19.8996795 C115.539406,20.5725461 115.058623,21.4613193 114.577833,22.5660256 C114.097042,23.670732 113.706405,24.8356776 113.405911,26.0608974 C113.185549,27.0049192 112.930133,27.6426265 112.639655,27.9740385 C112.349178,28.3054504 111.893435,28.4711538 111.272414,28.4711538 C110.651393,28.4711538 110.19565,28.2451946 109.905172,27.7932692 C109.725573,27.5138482 109.582351,27.1403712 109.475506,26.6728333 Z M19.0512315,10.6352564 C19.0512315,14.3912581 16.9978859,16.5303393 12.891133,17.0525641 L13.8827586,11.2076923 C13.9228245,11.0068366 13.9428571,10.7457281 13.9428571,10.424359 C13.9428571,9.88204857 13.7976205,9.4853645 13.5071429,9.23429487 C13.2166652,8.98322524 12.74089,8.85769231 12.079803,8.85769231 C11.4988477,8.85769231 10.9930235,9.00331051 10.5623153,9.29455128 C10.131607,9.58579205 9.85615824,10.0728598 9.73596059,10.7557692 C9.25517001,13.386979 8.88456616,15.4858896 8.62413793,17.0525641 C8.3637097,17.0324785 7.99310585,16.9822654 7.51231527,16.9019231 C7.41215057,16.8818375 7.26190576,16.8717949 7.06157635,16.8717949 C6.62085166,16.8717949 6.27528861,17.0023491 6.02487685,17.2634615 C5.77446509,17.524574 5.64926108,17.8760662 5.64926108,18.3179487 C5.64926108,18.7397457 5.73940797,19.0862166 5.91970443,19.3573718 C6.1000009,19.628527 6.49063739,19.8143157 7.09162562,19.9147436 C6.99146091,19.894658 7.3320158,19.9448712 8.11330049,20.0653846 L7.12167488,25.7596154 C6.86124665,27.1455198 6.48062648,27.8384615 5.97980296,27.8384615 C5.61921002,27.8384615 5.24359801,27.5723317 4.85295567,27.0400641 C4.46231332,26.5077965 4.14179107,25.7596202 3.89137931,24.7955128 C3.64096755,23.8314054 3.51576355,22.7267156 3.51576355,21.4814103 C3.51576355,18.5087458 3.93144083,15.8625116 4.76280788,13.5426282 C5.59417493,11.2227448 6.77610071,9.41004926 8.30862069,8.10448718 C9.84114067,6.7989251 11.6390701,6.14615385 13.7024631,6.14615385 C15.5254607,6.14615385 16.8726557,6.56292318 17.7440887,7.39647436 C18.6155216,8.23002554 19.0512315,9.30960876 19.0512315,10.6352564 Z M41.4529557,24.3887821 C42.0639604,23.7560866 42.5497519,22.9727611 42.9103448,22.0387821 C43.2709378,21.104803 43.4512315,20.1256461 43.4512315,19.1012821 C43.4512315,18.4987149 43.3310357,18.0417751 43.0906404,17.7304487 C42.8502451,17.4191224 42.5297229,17.2634615 42.129064,17.2634615 C41.4078782,17.2634615 40.5364583,18.0267018 39.5147783,19.5532051 C39.4947454,20.4369702 39.4847291,21.7324701 39.4847291,23.4397436 C39.4847291,24.3636798 39.4747127,25.0767069 39.4546798,25.5788462 C40.1758657,25.4181616 40.841951,25.0214775 41.4529557,24.3887821 Z M35.0674877,35.5964744 C35.4280806,33.2364198 35.658456,30.2989492 35.7586207,26.7839744 C34.8972042,28.7925314 34.2160945,30.7106746 33.7152709,32.5384615 C33.2144474,34.3662485 32.9640394,35.9027716 32.9640394,37.1480769 C32.9640394,37.7908152 33.0391618,38.2829043 33.1894089,38.624359 C33.3396559,38.9658137 33.5149415,39.1365385 33.7152709,39.1365385 C34.2561603,39.1365385 34.7068947,37.9565289 35.0674877,35.5964744 Z M115.50936,4.53429487 C115.068635,5.56870175 114.642941,6.96462796 114.232266,8.72211538 C113.821591,10.4796028 113.486044,12.3927247 113.225616,14.4615385 C114.467658,12.9952918 115.494331,11.3985129 116.305665,9.67115385 C117.116999,7.94379478 117.52266,6.37714378 117.52266,4.97115385 C117.52266,4.32841559 117.452546,3.83632649 117.312315,3.49487179 C117.172085,3.1534171 116.971758,2.98269231 116.71133,2.98269231 C116.350737,2.98269231 115.950084,3.49988799 115.50936,4.53429487 Z"/>
  </g>
</svg>
